<svg width="24" height="24" viewBox="0 0 24 24" fill="none" xmlns="http://www.w3.org/2000/svg">
<g clip-path="url(#clip0_119_1459)">
<path d="M1.5 0.75H18C18.8284 0.75 19.5 1.42163 19.5 2.25V22.5C19.5 23.3284 18.8284 24 18 24H1.5C0.671631 24 0 23.3284 0 22.5V2.25C0 1.42163 0.671631 0.75 1.5 0.75Z" fill="#ECCE93"/>
<path d="M1.5 17.5605V2.25H18V22.5H6.43945L1.5 17.5605Z" fill="#EFEFEF"/>
<path d="M6.43945 17.5605V22.5L1.5 17.5605H6.43945Z" fill="#E76E54"/>
<path d="M6 3V0H13.5V3C13.5 3.82837 12.8284 4.5 12 4.5H7.5C6.67163 4.5 6 3.82837 6 3Z" fill="#E76E54"/>
<path d="M24 17.25C24 20.9778 20.9778 24 17.25 24C13.5222 24 10.5 20.9778 10.5 17.25C10.5 13.5222 13.5222 10.5 17.25 10.5C20.9778 10.5 24 13.5222 24 17.25Z" fill="#48C8EF"/>
<path d="M15.7034 20.1393L14.2499 18.6851C13.9571 18.3921 13.9571 17.9173 14.2499 17.6245C14.5426 17.3317 15.0174 17.3317 15.3104 17.6245L15.7964 18.1098L19.1932 15.2786C19.5114 15.0131 19.9847 15.0561 20.2499 15.3745C20.5154 15.6928 20.4723 16.1661 20.1539 16.4312L15.7034 20.1393Z" fill="white"/>
<path d="M8.25 6H14.25C14.6642 6 15 6.33582 15 6.75C15 7.16418 14.6642 7.5 14.25 7.5H8.25C7.83582 7.5 7.5 7.16418 7.5 6.75C7.5 6.33582 7.83582 6 8.25 6Z" fill="#77959E"/>
<path d="M4.5 6H6V7.5H4.5V6Z" fill="#77959E"/>
<path d="M4.5 9H6V10.5H4.5V9Z" fill="#77959E"/>
<path d="M4.5 12H6V13.5H4.5V12Z" fill="#77959E"/>
<path d="M4.5 15H6V16.5H4.5V15Z" fill="#77959E"/>
<path d="M8.25 9H12.75C13.1642 9 13.5 9.33582 13.5 9.75C13.5 10.1642 13.1642 10.5 12.75 10.5H8.25C7.83582 10.5 7.5 10.1642 7.5 9.75C7.5 9.33582 7.83582 9 8.25 9Z" fill="#77959E"/>
<path d="M8.25 12H9.75C10.1642 12 10.5 12.3358 10.5 12.75C10.5 13.1642 10.1642 13.5 9.75 13.5H8.25C7.83582 13.5 7.5 13.1642 7.5 12.75C7.5 12.3358 7.83582 12 8.25 12Z" fill="#77959E"/>
</g>
<defs>
<clipPath id="clip0_119_1459">
<rect width="24" height="24" fill="white"/>
</clipPath>
</defs>
</svg>
