<svg width="25" height="24" viewBox="0 0 25 24" fill="none" xmlns="http://www.w3.org/2000/svg">
<path d="M21.3862 4.361V24H3.64325V0H17.1949V4.361H21.3862Z" fill="#FEDB41"/>
<path d="M17.1949 0L21.3861 4.361H17.1949V0Z" fill="#00ACEA"/>
<path d="M18.1345 20.4737H6.57065C6.36697 20.4737 6.20197 20.3087 6.20197 20.105C6.20197 19.9015 6.36697 19.7363 6.57065 19.7363H18.1345C18.3382 19.7363 18.5032 19.9015 18.5032 20.105C18.5032 20.3087 18.3382 20.4737 18.1345 20.4737Z" fill="#00ACEA"/>
<path d="M13.2694 17.6348H6.57065C6.36697 17.6348 6.20197 17.4698 6.20197 17.2661C6.20197 17.0625 6.36697 16.8975 6.57065 16.8975H13.2694C13.4731 16.8975 13.6381 17.0625 13.6381 17.2661C13.6381 17.4698 13.4731 17.6348 13.2694 17.6348Z" fill="#00ACEA"/>
<path d="M11.2905 3.85156C14.148 3.85156 16.4646 6.16816 16.4646 9.02563C16.4646 11.8833 14.148 14.1999 11.2905 14.1999C8.4328 14.1999 6.11621 11.8833 6.11621 9.02563C6.11642 6.16816 8.4328 3.85156 11.2905 3.85156Z" fill="#00EFD1"/>
<path d="M13.7133 10.3585V12.027H8.81348V10.3585C8.81327 9.70648 9.34181 9.17773 9.99379 9.17773C10.2907 9.5816 10.7618 9.82004 11.2632 9.82004C11.7644 9.82004 12.2357 9.5816 12.5324 9.17773C13.1846 9.17773 13.7131 9.70627 13.7133 10.3585Z" fill="#00ACEA"/>
<path d="M12.5753 7.33485C12.5753 8.05966 11.9877 8.64745 11.2629 8.64745C10.5379 8.64745 9.95032 8.05966 9.95032 7.33485C9.95032 6.61004 10.5379 6.02246 11.2629 6.02246C11.9877 6.02246 12.5753 6.61004 12.5753 7.33485Z" fill="#00ACEA"/>
</svg>
