<svg width="18" height="18" viewBox="0 0 18 18" fill="none" xmlns="http://www.w3.org/2000/svg">
<path d="M8.99998 6.49935C7.61881 6.49935 6.49996 7.6186 6.49996 8.99935C6.49996 10.3804 7.61923 11.4993 8.99998 11.4993C10.3811 11.4993 11.5 10.3801 11.5 8.99935C11.5 7.61827 10.3807 6.49935 8.99998 6.49935ZM8.99998 4.83268C11.3003 4.83268 13.1666 6.69693 13.1666 8.99935C13.1666 11.2998 11.3024 13.166 8.99998 13.166C6.69957 13.166 4.83329 11.3018 4.83329 8.99935C4.83329 6.69896 6.69754 4.83268 8.99998 4.83268ZM14.4166 4.62364C14.4166 5.19873 13.9493 5.66532 13.375 5.66532C12.7999 5.66532 12.3333 5.19802 12.3333 4.62364C12.3333 4.04927 12.8006 3.58268 13.375 3.58268C13.9486 3.58196 14.4166 4.04927 14.4166 4.62364ZM8.99998 2.33268C6.93789 2.33268 6.60179 2.33814 5.6427 2.38085C4.98927 2.41152 4.55125 2.49941 4.14428 2.65741C3.78261 2.79767 3.52172 2.96517 3.24374 3.24314C2.9647 3.52218 2.79751 3.78237 2.65781 4.14421C2.49944 4.55212 2.41158 4.98944 2.38146 5.64197C2.33833 6.56202 2.33329 6.88356 2.33329 8.99935C2.33329 11.0614 2.33875 11.3975 2.38145 12.3565C2.41214 13.0097 2.50014 13.4483 2.65776 13.8544C2.79839 14.2165 2.96623 14.478 3.24286 14.7547C3.523 15.0344 3.78397 15.2022 4.14237 15.3405C4.5543 15.4998 4.99204 15.5878 5.64258 15.6178C6.56263 15.6609 6.88417 15.666 8.99998 15.666C11.0621 15.666 11.3981 15.6605 12.3571 15.6178C13.0089 15.5873 13.4479 15.499 13.855 15.3415C14.2161 15.2013 14.4785 15.0329 14.7553 14.7564C15.0355 14.4759 15.2029 14.2155 15.3414 13.8563C15.5002 13.4459 15.5884 13.0075 15.6185 12.3568C15.6616 11.4367 15.6666 11.1151 15.6666 8.99935C15.6666 6.93728 15.6611 6.60119 15.6185 5.64216C15.5878 4.99023 15.4996 4.55059 15.3419 4.14367C15.202 3.783 15.0339 3.52131 14.7561 3.24314C14.4766 2.96364 14.2171 2.79679 13.8551 2.6572C13.4475 2.49897 13.0095 2.41098 12.3573 2.38086C11.4373 2.33772 11.1157 2.33268 8.99998 2.33268ZM8.99998 0.666016C11.2638 0.666016 11.5465 0.674349 12.4354 0.716016C13.3221 0.756991 13.9271 0.897266 14.4583 1.10352C15.0076 1.31532 15.4715 1.60143 15.9346 2.06462C16.3971 2.52782 16.6833 2.9931 16.8958 3.54102C17.1013 4.07157 17.2416 4.67712 17.2833 5.56393C17.3229 6.45282 17.3333 6.73546 17.3333 8.99935C17.3333 11.2633 17.325 11.5458 17.2833 12.4348C17.2423 13.3216 17.1013 13.9264 16.8958 14.4577C16.684 15.007 16.3971 15.4708 15.9346 15.9341C15.4715 16.3966 15.0055 16.6827 14.4583 16.8952C13.9271 17.1008 13.3221 17.241 12.4354 17.2827C11.5465 17.3223 11.2638 17.3327 8.99998 17.3327C6.73607 17.3327 6.45343 17.3244 5.56454 17.2827C4.67773 17.2417 4.07357 17.1008 3.54163 16.8952C2.99301 16.6833 2.52843 16.3966 2.06523 15.9341C1.60204 15.4708 1.31663 15.0049 1.10413 14.4577C0.897876 13.9264 0.758293 13.3216 0.716626 12.4348C0.677043 11.5458 0.666626 11.2633 0.666626 8.99935C0.666626 6.73546 0.674959 6.45282 0.716626 5.56393C0.757593 4.67643 0.897876 4.07227 1.10413 3.54102C1.31593 2.99241 1.60204 2.52782 2.06523 2.06462C2.52843 1.60143 2.99371 1.31602 3.54163 1.10352C4.07288 0.897266 4.67704 0.757682 5.56454 0.716016C6.45343 0.676432 6.73607 0.666016 8.99998 0.666016Z" fill="#007456"/>
</svg>
