<svg width="24" height="32" viewBox="0 0 24 32" fill="none" xmlns="http://www.w3.org/2000/svg">
<path d="M12 0.941162C7.29411 0.941162 3.5294 4.70587 3.5294 9.41175V13.1765C1.9294 13.1765 0.705872 14.4 0.705872 16V28.2353C0.705872 29.8353 1.9294 31.0588 3.5294 31.0588H20.4706C22.0706 31.0588 23.2941 29.8353 23.2941 28.2353V16C23.2941 14.4 22.0706 13.1765 20.4706 13.1765V9.41175C20.4706 4.70587 16.7059 0.941162 12 0.941162ZM21.4118 16V28.2353C21.4118 28.8 21.0353 29.1765 20.4706 29.1765H3.5294C2.9647 29.1765 2.58822 28.8 2.58822 28.2353V16C2.58822 15.4353 2.9647 15.0588 3.5294 15.0588H4.47058H19.5294H20.4706C21.0353 15.0588 21.4118 15.4353 21.4118 16ZM5.41175 13.1765V9.41175C5.41175 5.74116 8.3294 2.82352 12 2.82352C15.6706 2.82352 18.5882 5.74116 18.5882 9.41175V13.1765H5.41175Z" fill="#242B36"/>
<path d="M12 17.8823C10.4 17.8823 9.17645 19.1059 9.17645 20.7059C9.17645 21.9294 9.92939 22.9647 11.0588 23.3411V25.4117C11.0588 25.9764 11.4353 26.3529 12 26.3529C12.5647 26.3529 12.9412 25.9764 12.9412 25.4117V23.3411C14.0706 22.9647 14.8235 21.9294 14.8235 20.7059C14.8235 19.1059 13.6 17.8823 12 17.8823ZM12 21.647C11.4353 21.647 11.0588 21.2706 11.0588 20.7059C11.0588 20.1411 11.4353 19.7647 12 19.7647C12.5647 19.7647 12.9412 20.1411 12.9412 20.7059C12.9412 21.2706 12.5647 21.647 12 21.647Z" fill="#242B36"/>
</svg>
