<svg width="158" height="30" viewBox="0 0 158 30" fill="none" xmlns="http://www.w3.org/2000/svg">
<path d="M46.7321 16.0032L42.3068 8.91539H48.3021L50.9646 13.1754L53.6823 8.91539H56.0785L52.0939 14.9933L56.8314 22.5586L50.8361 22.5678L47.843 17.7936L44.749 22.5678H42.3435L46.7321 16.0032Z" fill="#242B36"/>
<path d="M58.7227 8.91539H64.0386L64.0294 22.5586H58.7227V8.91539Z" fill="#242B36"/>
<path d="M67.5366 8.91539H72.8525L72.8434 20.4561H78.0583V22.5586H67.5366V8.91539Z" fill="#242B36"/>
<path d="M84.0168 12.3583L82.4377 8.91539H88.029L94.7129 22.5678H88.7176L87.7077 20.3827H82.3275L81.3268 22.5678H79.0039L84.0168 12.3583ZM86.7436 18.2802L85.0176 14.5343L83.3007 18.2802H86.7436Z" fill="#242B36"/>
<path d="M96.5859 8.91539H99.9094L108.567 16.1869L108.576 8.91539H110.596V22.5586H107.273L98.6057 15.3147V22.5586H96.5859V8.91539Z" fill="#242B36"/>
<path d="M113.286 15.7462C113.286 15.0974 113.369 14.4731 113.534 13.8732C113.706 13.2673 113.954 12.7041 114.278 12.1839C114.602 11.6636 115 11.1893 115.472 10.7608C115.943 10.3323 116.478 9.9651 117.078 9.65906C117.684 9.35302 118.351 9.11737 119.08 8.95211C119.808 8.78073 120.592 8.69504 121.43 8.69504C121.969 8.69504 122.483 8.7287 122.973 8.79603C123.468 8.86336 123.934 8.95823 124.368 9.08065C124.803 9.19694 125.204 9.33466 125.571 9.4938C125.944 9.64682 126.281 9.80902 126.581 9.9804L125.791 11.5228C125.448 11.3576 125.057 11.2199 124.616 11.1097C124.181 10.9934 123.728 10.9352 123.257 10.9352C122.627 10.9352 122.042 11.0485 121.504 11.2749C120.965 11.5014 120.5 11.8228 120.108 12.239C119.716 12.6552 119.407 13.1601 119.181 13.7539C118.96 14.3415 118.85 15.0025 118.85 15.737C118.85 16.4654 118.96 17.1264 119.181 17.7201C119.401 18.3077 119.704 18.8127 120.09 19.235C120.481 19.6512 120.944 19.9756 121.476 20.2082C122.015 20.4347 122.596 20.5479 123.22 20.5479C123.661 20.5479 124.102 20.4959 124.543 20.3918C124.983 20.2817 125.387 20.1378 125.754 19.9603L126.544 21.5028C126.244 21.6803 125.911 21.8455 125.543 21.9986C125.176 22.1516 124.778 22.2893 124.35 22.4117C123.921 22.528 123.462 22.6198 122.973 22.6871C122.483 22.7545 121.969 22.7881 121.43 22.7881C120.175 22.7881 119.043 22.6045 118.033 22.2373C117.029 21.8639 116.175 21.3589 115.472 20.7224C114.768 20.0797 114.226 19.333 113.846 18.4822C113.473 17.6253 113.286 16.7133 113.286 15.7462Z" fill="#242B36"/>
<path d="M128.702 8.91539H140.233V11.0179H134.017L134.008 14.6995H138.764V16.802H134.008V20.4561H140.233V22.5586H128.702V8.91539Z" fill="#242B36"/>
<path d="M142.969 8.91539H150.837C151.853 8.91539 152.741 9.0225 153.5 9.23673C154.265 9.45095 154.902 9.75087 155.41 10.1365C155.924 10.5221 156.309 10.9842 156.566 11.5228C156.824 12.0615 156.952 12.6552 156.952 13.304C156.952 14.1058 156.762 14.8189 156.383 15.4432C156.003 16.0614 155.44 16.5541 154.693 16.9214L157.558 22.5678H151.563L149.396 17.61H148.276V22.5586H142.969V8.91539ZM148.597 15.9482C149.032 15.9482 149.42 15.887 149.763 15.7645C150.106 15.6421 150.397 15.4707 150.635 15.2504C150.874 15.0239 151.058 14.7577 151.186 14.4516C151.315 14.1395 151.379 13.7998 151.379 13.4325C151.379 13.0653 151.315 12.7286 151.186 12.4226C151.058 12.1104 150.874 11.8442 150.635 11.6238C150.397 11.3974 150.106 11.2229 149.763 11.1005C149.42 10.9781 149.032 10.9169 148.597 10.9169H148.285L148.276 15.9482H148.597Z" fill="#242B36"/>
<path d="M12.9774 8.39996C13.4417 8.86736 13.3923 9.63643 12.8721 10.0375C11.7297 10.9259 10.6037 11.8309 9.50077 12.7525C9.45797 12.7889 9.41517 12.8254 9.37237 12.8619C8.94108 13.2232 8.30896 13.1934 7.91059 12.7923L0.318531 5.14468C-0.106177 4.71706 -0.106177 4.02423 0.318531 3.59992L3.4989 0.397686C3.92361 -0.0299416 4.6117 -0.0299416 5.03311 0.397686L12.9774 8.39996Z" fill="#06AF83"/>
<path d="M21.3169 16.7967L29.3205 24.8553C29.7452 25.283 29.7452 25.9725 29.3205 26.4001L26.1401 29.6023C25.7154 30.03 25.0273 30.03 24.6059 29.6023L15.8352 20.7713C15.4105 20.3437 14.7224 20.3437 14.301 20.7713C11.3774 23.715 8.45384 26.6587 5.53027 29.6023C5.10556 30.03 4.41747 30.03 3.99606 29.6023L0.799227 26.3835C0.381105 25.9625 0.37452 25.283 0.786058 24.852C3.92033 21.5669 7.21264 18.4641 10.6531 15.5536C10.8967 15.3481 11.1404 15.1426 11.384 14.9404C12.8622 13.7072 14.3701 12.5105 15.9043 11.347C20.2765 8.03201 24.8792 4.99221 29.7057 2.22754C30.8053 1.5977 31.9049 3.04965 31.0094 3.95131C27.5196 7.45852 24.0363 10.969 20.5498 14.4796C20.1251 14.9072 20.1251 15.6 20.5498 16.0243L21.3169 16.7967Z" fill="#FA8C00"/>
</svg>
