<svg width="24" height="24" viewBox="0 0 24 24" fill="none" xmlns="http://www.w3.org/2000/svg">
<g clip-path="url(#clip0_2048_226)">
<path d="M19.993 9.10798C20.376 9.50798 20.68 9.97098 20.886 10.476C21.3015 11.49 21.3036 12.6264 20.892 13.642C20.6852 14.151 20.3843 14.6165 20.005 15.014C19.3192 15.734 18.5812 16.4025 17.797 17.014C17.007 17.6302 16.1731 18.188 15.302 18.683C13.542 19.6799 11.649 20.4214 9.68002 20.885C8.66387 21.1271 7.594 20.9832 6.67802 20.481C6.23211 20.236 5.83731 19.9077 5.51502 19.514C5.19925 19.1267 4.96307 18.6808 4.82002 18.202C3.62102 14.3 3.79802 9.88998 4.95402 5.97198C5.56302 3.91498 7.59702 2.62298 9.69102 3.09798C13.571 3.97798 17.211 6.24498 19.993 9.10798Z" stroke="#007456" stroke-width="1.5" stroke-linecap="round" stroke-linejoin="round"/>
<path d="M14.044 13.034C14.714 12.529 14.714 11.545 14.044 11.024C13.5666 10.6456 13.0663 10.2969 12.546 9.98001C12.0232 9.66048 11.4823 9.37166 10.926 9.11501C10.156 8.76501 9.29598 9.25401 9.17298 10.088C8.98385 11.3411 8.95026 12.6127 9.07298 13.874C9.08953 14.0685 9.15208 14.2563 9.25546 14.4219C9.35884 14.5875 9.5001 14.7262 9.66759 14.8265C9.83508 14.9268 10.024 14.9859 10.2188 14.9988C10.4136 15.0118 10.6087 14.9783 10.788 14.901C11.3697 14.6617 11.9355 14.3854 12.482 14.074C13.0245 13.7631 13.5462 13.4174 14.044 13.039V13.034Z" stroke="#007456" stroke-width="1.5" stroke-linecap="round" stroke-linejoin="round"/>
</g>
<defs>
<clipPath id="clip0_2048_226">
<rect width="24" height="24" fill="white"/>
</clipPath>
</defs>
</svg>
