<svg width="158" height="30" viewBox="0 0 158 30" fill="none" xmlns="http://www.w3.org/2000/svg">
<path d="M46.7321 15.9263L42.3068 8.83839H48.3021L50.9646 13.0985L53.6823 8.83839H56.0785L52.0939 14.9163L56.8314 22.4816L50.8361 22.4908L47.843 17.7166L44.749 22.4908H42.3435L46.7321 15.9263Z" fill="#ECEDEF"/>
<path d="M58.7227 8.83839H64.0386L64.0294 22.4816H58.7227V8.83839Z" fill="#ECEDEF"/>
<path d="M67.5366 8.83839H72.8525L72.8434 20.3791H78.0583V22.4816H67.5366V8.83839Z" fill="#ECEDEF"/>
<path d="M84.0168 12.2813L82.4377 8.83839H88.029L94.7129 22.4908H88.7176L87.7077 20.3057H82.3275L81.3268 22.4908H79.0039L84.0168 12.2813ZM86.7436 18.2032L85.0176 14.4573L83.3007 18.2032H86.7436Z" fill="#ECEDEF"/>
<path d="M96.5859 8.83839H99.9094L108.567 16.1099L108.576 8.83839H110.596V22.4816H107.273L98.6057 15.2377V22.4816H96.5859V8.83839Z" fill="#ECEDEF"/>
<path d="M113.286 15.6692C113.286 15.0204 113.369 14.3961 113.534 13.7962C113.706 13.1903 113.954 12.6272 114.278 12.1069C114.602 11.5866 115 11.1123 115.472 10.6838C115.943 10.2554 116.478 9.8881 117.078 9.58206C117.684 9.27603 118.351 9.04038 119.08 8.87511C119.808 8.70373 120.592 8.61804 121.43 8.61804C121.969 8.61804 122.483 8.65171 122.973 8.71903C123.468 8.78636 123.934 8.88124 124.368 9.00365C124.803 9.11995 125.204 9.25766 125.571 9.4168C125.944 9.56982 126.281 9.73202 126.581 9.90341L125.791 11.4458C125.448 11.2806 125.057 11.1429 124.616 11.0327C124.181 10.9164 123.728 10.8582 123.257 10.8582C122.627 10.8582 122.042 10.9715 121.504 11.198C120.965 11.4244 120.5 11.7458 120.108 12.162C119.716 12.5782 119.407 13.0832 119.181 13.6769C118.96 14.2645 118.85 14.9255 118.85 15.66C118.85 16.3884 118.96 17.0494 119.181 17.6431C119.401 18.2307 119.704 18.7357 120.09 19.158C120.481 19.5742 120.944 19.8986 121.476 20.1312C122.015 20.3577 122.596 20.4709 123.22 20.4709C123.661 20.4709 124.102 20.4189 124.543 20.3149C124.983 20.2047 125.387 20.0608 125.754 19.8833L126.544 21.4258C126.244 21.6033 125.911 21.7685 125.543 21.9216C125.176 22.0746 124.778 22.2123 124.35 22.3347C123.921 22.451 123.462 22.5428 122.973 22.6101C122.483 22.6775 121.969 22.7111 121.43 22.7111C120.175 22.7111 119.043 22.5275 118.033 22.1603C117.029 21.7869 116.175 21.2819 115.472 20.6454C114.768 20.0027 114.226 19.256 113.846 18.4052C113.473 17.5483 113.286 16.6363 113.286 15.6692Z" fill="#ECEDEF"/>
<path d="M128.702 8.83839H140.233V10.9409H134.017L134.008 14.6225H138.764V16.725H134.008V20.3791H140.233V22.4816H128.702V8.83839Z" fill="#ECEDEF"/>
<path d="M142.969 8.83839H150.837C151.853 8.83839 152.741 8.9455 153.5 9.15973C154.265 9.37396 154.902 9.67388 155.41 10.0595C155.924 10.4451 156.309 10.9072 156.566 11.4458C156.824 11.9845 156.952 12.5782 156.952 13.227C156.952 14.0288 156.762 14.7419 156.383 15.3662C156.003 15.9844 155.44 16.4771 154.693 16.8444L157.558 22.4908H151.563L149.396 17.533H148.276V22.4816H142.969V8.83839ZM148.597 15.8712C149.032 15.8712 149.42 15.81 149.763 15.6875C150.106 15.5651 150.397 15.3937 150.635 15.1734C150.874 14.9469 151.058 14.6807 151.186 14.3746C151.315 14.0625 151.379 13.7228 151.379 13.3555C151.379 12.9883 151.315 12.6516 151.186 12.3456C151.058 12.0334 150.874 11.7672 150.635 11.5468C150.397 11.3204 150.106 11.1459 149.763 11.0235C149.42 10.9011 149.032 10.8399 148.597 10.8399H148.285L148.276 15.8712H148.597Z" fill="#ECEDEF"/>
<path d="M12.9774 8.32299C13.4417 8.7904 13.3923 9.55947 12.8721 9.96058C11.7297 10.849 10.6037 11.754 9.50077 12.6755C9.45797 12.712 9.41517 12.7484 9.37237 12.7849C8.94108 13.1462 8.30896 13.1164 7.91059 12.7153L0.318531 5.06772C-0.106177 4.64009 -0.106177 3.94727 0.318531 3.52296L3.4989 0.320721C3.92361 -0.106907 4.6117 -0.106907 5.03311 0.320721L12.9774 8.32299Z" fill="#06AF83"/>
<path d="M21.3169 16.7197L29.3205 24.7784C29.7452 25.206 29.7452 25.8955 29.3205 26.3231L26.1401 29.5253C25.7154 29.953 25.0273 29.953 24.6059 29.5253L15.8352 20.6943C15.4105 20.2667 14.7224 20.2667 14.301 20.6943C11.3774 23.638 8.45384 26.5817 5.53027 29.5253C5.10556 29.953 4.41747 29.953 3.99606 29.5253L0.799227 26.3065C0.381105 25.8855 0.37452 25.206 0.786058 24.775C3.92033 21.4899 7.21264 18.3871 10.6531 15.4766C10.8967 15.2711 11.1404 15.0656 11.384 14.8634C12.8622 13.6302 14.3701 12.4335 15.9043 11.27C20.2765 7.95501 24.8792 4.91521 29.7057 2.15055C30.8053 1.52071 31.9049 2.97265 31.0094 3.87432C27.5196 7.38153 24.0363 10.8921 20.5498 14.4026C20.1251 14.8302 20.1251 15.523 20.5498 15.9473L21.3169 16.7197Z" fill="#FA8C00"/>
</svg>
