<svg width="14" height="12" viewBox="0 0 14 12" fill="none" xmlns="http://www.w3.org/2000/svg">
<path fill-rule="evenodd" clip-rule="evenodd" d="M10.1654 3.51707C9.62664 3.49438 9.09085 3.60324 8.61058 3.83297C8.1303 4.06271 7.72203 4.40543 7.42582 4.82752V3.50708H4.78582V11.8327H7.44449V7.81974C7.44449 6.76073 7.70404 5.73834 9.22671 5.73834C10.7965 5.73834 11 6.94888 11 7.88968V11.8327H13.6667V7.38265C13.6667 5.19718 13.0445 3.51707 10.1654 3.51707Z" fill="#007456"/>
<path fill-rule="evenodd" clip-rule="evenodd" d="M1.66671 0.166016C1.403 0.166016 1.14521 0.239259 0.925948 0.376483C0.706682 0.513708 0.535785 0.70875 0.434869 0.936945C0.333952 1.16514 0.307547 1.41624 0.358994 1.65849C0.410441 1.90074 0.537429 2.12327 0.723899 2.29792C0.910369 2.47257 1.14795 2.59151 1.40659 2.6397C1.66523 2.68789 1.93332 2.66316 2.17695 2.56863C2.42059 2.47411 2.62883 2.31405 2.77533 2.10867C2.92184 1.9033 3.00004 1.66185 3.00004 1.41486C3.00004 1.08364 2.85957 0.765995 2.60952 0.531792C2.35947 0.297589 2.02033 0.166016 1.66671 0.166016Z" fill="#007456"/>
<path d="M3.00004 3.51707H0.333375V11.8327H3.00004V3.51707Z" fill="#007456"/>
</svg>
