<svg width="14" height="14" viewBox="0 0 14 14" fill="none" xmlns="http://www.w3.org/2000/svg">
<path fill-rule="evenodd" clip-rule="evenodd" d="M6.99992 0.333008C5.68138 0.333008 4.39245 0.724001 3.29612 1.45654C2.19979 2.18909 1.34531 3.23028 0.840725 4.44845C0.336141 5.66663 0.204118 7.00707 0.461353 8.30028C0.718588 9.59348 1.35353 10.7814 2.28588 11.7137C3.21823 12.6461 4.40611 13.281 5.69932 13.5382C6.99253 13.7955 8.33297 13.6635 9.55115 13.1589C10.7693 12.6543 11.8105 11.7998 12.5431 10.7035C13.2756 9.60715 13.6666 8.31822 13.6666 6.99967C13.665 5.23205 12.9621 3.53728 11.7122 2.28738C10.4623 1.03749 8.76754 0.334597 6.99992 0.333008V0.333008ZM11.4086 3.40901C12.2289 4.41018 12.6828 5.66141 12.6953 6.95567C11.3897 6.69813 10.053 6.63657 8.72926 6.77301C8.68992 6.67367 8.64792 6.57834 8.60659 6.47901C8.48992 6.20034 8.36126 5.92367 8.22926 5.65301C9.46566 5.1933 10.5613 4.42 11.4086 3.40901V3.40901ZM5.66659 1.47101C6.10352 1.36739 6.55088 1.31415 6.99992 1.31234C8.39209 1.31049 9.73622 1.82118 10.7759 2.74701C10.0002 3.70602 8.964 4.42064 7.79192 4.80501C7.15631 3.6491 6.44637 2.53565 5.66659 1.47167V1.47101ZM1.42792 5.84101C1.61012 4.97809 1.98961 4.16907 2.53669 3.47731C3.08376 2.78554 3.78355 2.22983 4.58125 1.85367C5.34445 2.91257 6.04949 4.0122 6.69326 5.14767C4.97334 5.59677 3.20414 5.82968 1.42659 5.84101H1.42792ZM2.76792 10.8143C1.82443 9.7717 1.30175 8.41583 1.30125 7.00967C1.30125 6.95034 1.30125 6.89301 1.30125 6.83501C3.28016 6.83993 5.24992 6.56636 7.15259 6.02234C7.31459 6.34034 7.47059 6.66501 7.61392 6.98834C7.53792 7.00967 7.46259 7.03301 7.38992 7.05501C5.46704 7.74858 3.83575 9.07297 2.76192 10.8123L2.76792 10.8143ZM6.99992 12.7037C5.73352 12.7051 4.50306 12.2827 3.50459 11.5037C4.4917 9.7977 6.08723 8.52794 7.97126 7.94901C7.9832 7.94384 7.99545 7.93939 8.00792 7.93567C8.54732 9.33335 8.95335 10.7789 9.22059 12.253V12.253C8.51838 12.5516 7.76298 12.7049 6.99992 12.7037V12.7037ZM10.1813 11.729C9.92832 10.3459 9.55832 8.9868 9.07526 7.66634C10.2614 7.49136 11.4713 7.57413 12.6226 7.90901C12.4984 8.67864 12.2178 9.41466 11.7981 10.0717C11.3785 10.7287 10.8287 11.2927 10.1826 11.729H10.1813Z" fill="white"/>
</svg>
