<svg width="12" height="10" viewBox="0 0 12 10" fill="none" xmlns="http://www.w3.org/2000/svg">
<path fill-rule="evenodd" clip-rule="evenodd" d="M8.53235 3.01385C8.10136 2.9957 7.67273 3.08278 7.28851 3.26657C6.90429 3.45036 6.57768 3.72454 6.3407 4.06221V3.00586H4.2287V9.66634H6.35564V6.45599C6.35564 5.60878 6.56328 4.79087 7.78141 4.79087C9.03724 4.79087 9.20008 5.7593 9.20008 6.51194V9.66634H11.3334V6.10631C11.3334 4.35794 10.8356 3.01385 8.53235 3.01385Z" fill="white"/>
<path fill-rule="evenodd" clip-rule="evenodd" d="M1.73342 0.333008C1.52245 0.333008 1.31622 0.391602 1.14081 0.501382C0.965395 0.611161 0.828677 0.767195 0.747944 0.949752C0.66721 1.13231 0.646087 1.33319 0.687244 1.52699C0.728402 1.72079 0.829992 1.89881 0.979168 2.03853C1.12834 2.17825 1.31841 2.27341 1.52532 2.31196C1.73223 2.35051 1.9467 2.33072 2.14161 2.2551C2.33652 2.17949 2.50311 2.05143 2.62032 1.88714C2.73752 1.72284 2.80008 1.52968 2.80008 1.33208C2.80008 1.06711 2.6877 0.812992 2.48766 0.625629C2.28762 0.438267 2.01631 0.333008 1.73342 0.333008Z" fill="white"/>
<path d="M2.80008 3.01385H0.666749V9.66634H2.80008V3.01385Z" fill="white"/>
</svg>
