<svg width="396" height="396" viewBox="0 0 396 396" fill="none" xmlns="http://www.w3.org/2000/svg">
<path d="M396 302.861H0V303.059H396V302.861Z" fill="#EBEBEB"/>
<path d="M356.321 315.605H330.09V315.803H356.321V315.605Z" fill="#EBEBEB"/>
<path d="M262.326 317.76H255.443V317.958H262.326V317.76Z" fill="#EBEBEB"/>
<path d="M329.298 308.254H314.1V308.452H329.298V308.254Z" fill="#EBEBEB"/>
<path d="M75.7543 309.586H41.5479V309.784H75.7543V309.586Z" fill="#EBEBEB"/>
<path d="M87.8249 309.586H82.8115V309.784H87.8249V309.586Z" fill="#EBEBEB"/>
<path d="M178.319 312.928H104.124V313.126H178.319V312.928Z" fill="#EBEBEB"/>
<path d="M187.704 267.538H34.7771C33.5791 267.536 32.4308 267.059 31.5845 266.211C30.7381 265.363 30.2627 264.214 30.2627 263.016V48.0433C30.2731 46.8521 30.7531 45.7132 31.5984 44.8739C32.4436 44.0345 33.5859 43.5626 34.7771 43.5605H187.704C188.904 43.5605 190.054 44.037 190.902 44.8851C191.75 45.7332 192.227 46.8835 192.227 48.0829V263.016C192.227 264.215 191.75 265.365 190.902 266.214C190.054 267.062 188.904 267.538 187.704 267.538ZM34.7771 43.7189C33.6316 43.721 32.5337 44.1776 31.7245 44.9883C30.9152 45.799 30.4607 46.8978 30.4607 48.0433V263.016C30.4607 264.161 30.9152 265.26 31.7245 266.071C32.5337 266.882 33.6316 267.338 34.7771 267.34H187.704C188.851 267.338 189.949 266.882 190.76 266.071C191.57 265.261 192.027 264.162 192.029 263.016V48.0433C192.027 46.897 191.57 45.7983 190.76 44.9878C189.949 44.1773 188.851 43.721 187.704 43.7189H34.7771Z" fill="#EBEBEB"/>
<path d="M359.022 267.538H206.087C204.888 267.536 203.739 267.059 202.891 266.211C202.044 265.364 201.567 264.215 201.564 263.016V48.0433C201.577 46.8514 202.059 45.7125 202.905 44.8734C203.752 44.0342 204.895 43.5626 206.087 43.5605H359.022C360.212 43.5647 361.352 44.0375 362.196 44.8766C363.039 45.7157 363.518 46.8535 363.528 48.0433V263.016C363.528 264.212 363.054 265.36 362.21 266.208C361.365 267.056 360.219 267.534 359.022 267.538ZM206.087 43.7189C204.941 43.721 203.842 44.1773 203.031 44.9878C202.221 45.7983 201.765 46.897 201.762 48.0433V263.016C201.765 264.162 202.221 265.261 203.031 266.071C203.842 266.882 204.941 267.338 206.087 267.34H359.022C360.168 267.338 361.267 266.882 362.077 266.071C362.888 265.261 363.344 264.162 363.346 263.016V48.0433C363.344 46.897 362.888 45.7983 362.077 44.9878C361.267 44.1773 360.168 43.721 359.022 43.7189H206.087Z" fill="#EBEBEB"/>
<path d="M229.435 137.855H338.557V66.3933L229.435 66.3933V137.855Z" fill="#E6E6E6"/>
<path d="M226.1 137.855H336.996V66.3933L226.1 66.3933V137.855Z" fill="#F0F0F0"/>
<path d="M229.435 151.875H338.557V137.849H229.435V151.875Z" fill="#E6E6E6"/>
<path d="M220.564 151.875H331.46V137.849H220.564V151.875Z" fill="#F0F0F0"/>
<path d="M332.339 133.199V71.0586H230.765V133.199H332.339Z" fill="#FAFAFA"/>
<path d="M309.434 133.191L296.461 71.0586H276.218L289.191 133.191H309.434Z" fill="white"/>
<path d="M330.185 128.558C330.23 128.558 330.274 128.549 330.314 128.532C330.355 128.515 330.392 128.49 330.423 128.458C330.454 128.426 330.479 128.389 330.495 128.348C330.511 128.306 330.519 128.262 330.518 128.218V74.0925C330.518 74.0043 330.483 73.9197 330.42 73.8573C330.358 73.7949 330.273 73.7599 330.185 73.7599C330.141 73.7588 330.098 73.7666 330.057 73.783C330.016 73.7993 329.979 73.8238 329.948 73.8549C329.917 73.886 329.892 73.9231 329.876 73.9639C329.859 74.0048 329.852 74.0485 329.853 74.0925V128.218C329.852 128.262 329.859 128.306 329.876 128.348C329.892 128.389 329.916 128.426 329.947 128.458C329.978 128.49 330.015 128.515 330.056 128.532C330.097 128.549 330.141 128.558 330.185 128.558Z" fill="#F0F0F0"/>
<path d="M284.843 133.191L271.87 71.0586H263.974L276.955 133.191H284.843Z" fill="white"/>
<path d="M231.359 133.199V71.0586H230.765V133.199H231.359Z" fill="#E6E6E6"/>
<path opacity="0.6" d="M225.007 78.0845H334.129L334.556 72.8652H225.435L225.007 78.0845Z" fill="#EBEBEB"/>
<path opacity="0.6" d="M225.007 86.6371H334.129L334.556 81.4258H225.435L225.007 86.6371Z" fill="#EBEBEB"/>
<path opacity="0.6" d="M225.007 95.1918H334.129L334.556 89.9805H225.435L225.007 95.1918Z" fill="#EBEBEB"/>
<path opacity="0.6" d="M225.007 103.752H334.129L334.556 98.5332H225.435L225.007 103.752Z" fill="#EBEBEB"/>
<path opacity="0.6" d="M225.007 112.305H334.129L334.556 107.086H225.435L225.007 112.305Z" fill="#EBEBEB"/>
<path opacity="0.6" d="M225.007 120.86H334.129L334.556 115.641H225.435L225.007 120.86Z" fill="#EBEBEB"/>
<path d="M322.891 250.891H300.01V255.405H322.891V250.891Z" fill="#E6E6E6"/>
<path d="M256.854 302.861H261.075V199.054H256.854V302.861Z" fill="#E6E6E6"/>
<path d="M242.218 255.404H300.002V250.89H242.218V255.404Z" fill="#F5F5F5"/>
<path d="M322.891 275.576H300.01V280.091H322.891V275.576Z" fill="#E6E6E6"/>
<path d="M242.218 280.084H300.002V275.57H242.218V280.084Z" fill="#F5F5F5"/>
<path d="M322.891 201.525H300.01V206.04H322.891V201.525Z" fill="#E6E6E6"/>
<path d="M242.218 206.031H300.002V201.517H242.218V206.031Z" fill="#F5F5F5"/>
<path d="M322.891 226.203H300.01V230.718H322.891V226.203Z" fill="#E6E6E6"/>
<path d="M242.218 230.719H300.002V226.204H242.218V230.719Z" fill="#F5F5F5"/>
<path d="M314.646 302.861H318.867V199.054H314.646V302.861Z" fill="#E6E6E6"/>
<path d="M295.781 302.861H300.002V199.054H295.781V302.861Z" fill="#F5F5F5"/>
<path d="M242.217 302.861H246.438V199.054H242.217V302.861Z" fill="#F5F5F5"/>
<path d="M51.7814 302.861H95.0088L95.0088 218.996H51.7814L51.7814 302.861Z" fill="#E6E6E6"/>
<path d="M63.3208 302.862H51.7734V291.283H75.4226L63.3208 302.862Z" fill="#FAFAFA"/>
<path d="M169.631 302.861H212.858V218.996H169.631V302.861Z" fill="#E6E6E6"/>
<path d="M51.7811 298.869H179.713V218.988H51.7811L51.7811 298.869Z" fill="#FAFAFA"/>
<path d="M168.165 302.862H179.705V291.283H156.063L168.165 302.862Z" fill="#FAFAFA"/>
<path d="M60.7302 268.75H170.755V248.76H60.7302V268.75Z" fill="#F0F0F0"/>
<path d="M60.7302 293.01H170.755V273.02H60.7302V293.01Z" fill="#F0F0F0"/>
<path d="M149.846 250.898H81.6473C80.6852 250.898 79.7626 250.516 79.0823 249.836C78.4021 249.156 78.0199 248.233 78.0199 247.271V247.026H153.466V247.271C153.466 248.232 153.085 249.153 152.406 249.833C151.728 250.513 150.807 250.896 149.846 250.898Z" fill="#FAFAFA"/>
<path d="M60.7302 244.482H170.755V224.492H60.7302V244.482Z" fill="#F0F0F0"/>
<path d="M149.846 226.631H81.6473C80.6852 226.631 79.7626 226.249 79.0823 225.568C78.4021 224.888 78.0199 223.966 78.0199 223.003V222.758H153.466V223.003C153.466 223.964 153.085 224.886 152.406 225.566C151.728 226.246 150.807 226.629 149.846 226.631Z" fill="#FAFAFA"/>
<path d="M149.846 275.166H81.6473C80.6852 275.166 79.7626 274.784 79.0823 274.104C78.4021 273.423 78.0199 272.501 78.0199 271.539V271.293H153.466V271.539C153.466 272.499 153.085 273.421 152.406 274.101C151.728 274.781 150.807 275.164 149.846 275.166Z" fill="#FAFAFA"/>
<path d="M58.6634 137.855H167.785V66.3933L58.6634 66.3933L58.6634 137.855Z" fill="#E6E6E6"/>
<path d="M55.3366 137.855H166.232V66.3933L55.3366 66.3933L55.3366 137.855Z" fill="#F0F0F0"/>
<path d="M58.6634 151.875H167.785V137.849H58.6634V151.875Z" fill="#E6E6E6"/>
<path d="M49.7848 151.875H160.681V137.849H49.7848V151.875Z" fill="#F0F0F0"/>
<path d="M161.568 133.199V71.0586H59.9944V133.199H161.568Z" fill="#FAFAFA"/>
<path d="M138.664 133.191L125.691 71.0586H105.447L118.42 133.191H138.664Z" fill="white"/>
<path d="M159.406 128.558C159.45 128.558 159.494 128.549 159.535 128.532C159.576 128.515 159.613 128.49 159.644 128.458C159.675 128.426 159.699 128.389 159.716 128.348C159.732 128.306 159.74 128.262 159.739 128.218V74.0925C159.74 74.0485 159.732 74.0048 159.716 73.9639C159.699 73.9231 159.675 73.886 159.644 73.8549C159.612 73.8238 159.575 73.7993 159.535 73.783C159.494 73.7666 159.45 73.7588 159.406 73.7599C159.318 73.7599 159.233 73.7949 159.171 73.8573C159.108 73.9197 159.073 74.0043 159.073 74.0925V128.218C159.072 128.262 159.08 128.306 159.096 128.348C159.113 128.389 159.137 128.426 159.168 128.458C159.199 128.49 159.236 128.515 159.277 128.532C159.318 128.549 159.362 128.558 159.406 128.558Z" fill="#F0F0F0"/>
<path d="M114.071 133.191L101.098 71.0586H93.2021L106.175 133.191H114.071Z" fill="white"/>
<path d="M60.5879 133.199L60.5879 71.0586H59.9939L59.9939 133.199H60.5879Z" fill="#E6E6E6"/>
<path opacity="0.6" d="M54.2285 78.0845H163.35L163.778 72.8652H54.6562L54.2285 78.0845Z" fill="#EBEBEB"/>
<path opacity="0.6" d="M54.2285 81.0298H163.35L163.778 75.8105H54.6562L54.2285 81.0298Z" fill="#EBEBEB"/>
<path opacity="0.6" d="M54.2285 83.9692H163.35L163.778 78.7578H54.6562L54.2285 83.9692Z" fill="#EBEBEB"/>
<path opacity="0.6" d="M54.2285 86.9146H163.35L163.778 81.6953H54.6562L54.2285 86.9146Z" fill="#EBEBEB"/>
<path opacity="0.6" d="M54.2285 89.852H163.35L163.778 84.6406H54.6562L54.2285 89.852Z" fill="#EBEBEB"/>
<path opacity="0.6" d="M54.2285 92.7994H163.35L163.778 87.5801H54.6562L54.2285 92.7994Z" fill="#EBEBEB"/>
<path d="M76.0475 216.43H79.8174V174.382H76.0475V216.43Z" fill="#F5F5F5"/>
<path d="M76.5226 216.406H77.5918V174.359H76.5226V216.406Z" fill="#FAFAFA"/>
<path d="M78.0353 216.406H78.4551V174.359H78.0353V216.406Z" fill="#FAFAFA"/>
<path d="M91.8955 218.996H63.9854C63.9854 218.063 64.3559 217.169 65.0154 216.51C65.6749 215.85 66.5693 215.48 67.5019 215.48H88.3711C89.3037 215.48 90.1982 215.85 90.8576 216.51C91.5171 217.169 91.8876 218.063 91.8876 218.996H91.8955Z" fill="#F0F0F0"/>
<path d="M71.1535 200.487C71.4406 200.485 71.7154 200.37 71.9185 200.167C72.1215 199.964 72.2365 199.689 72.2385 199.402V171.864C72.2385 171.577 72.1242 171.301 71.9207 171.097C71.7173 170.894 71.4413 170.779 71.1535 170.779C71.0104 170.778 70.8684 170.806 70.7358 170.86C70.6033 170.914 70.4827 170.993 70.3811 171.094C70.2795 171.195 70.1989 171.315 70.1439 171.447C70.0889 171.579 70.0605 171.721 70.0605 171.864V199.434C70.0708 199.717 70.1905 199.985 70.3943 200.181C70.5982 200.378 70.8704 200.487 71.1535 200.487Z" fill="#F0F0F0"/>
<path d="M61.0391 184.379H94.8179L90.9291 160.777H64.9278L61.0391 184.379Z" fill="#E0E0E0"/>
<path d="M198 338.628C282.81 338.628 351.561 334.614 351.561 329.663C351.561 324.711 282.81 320.697 198 320.697C113.191 320.697 44.4395 324.711 44.4395 329.663C44.4395 334.614 113.191 338.628 198 338.628Z" fill="#F5F5F5"/>
<path d="M82.4618 160.267L81.6719 160.324L82.724 174.93L83.5139 174.874L82.4618 160.267Z" fill="#007456"/>
<path d="M84.0507 182.414L83.2607 182.471L83.6568 187.969L84.4467 187.912L84.0507 182.414Z" fill="#007456"/>
<path d="M267.467 249.606H97.8519C95.9639 249.572 94.1552 248.841 92.7747 247.552C91.3942 246.264 90.5395 244.51 90.3754 242.629L82.0436 126.894C81.9661 126.001 82.0764 125.102 82.3674 124.255C82.6585 123.408 83.1238 122.631 83.7333 121.974C84.3429 121.318 85.0833 120.796 85.9067 120.443C86.7301 120.09 87.6184 119.913 88.5142 119.924H258.129C260.016 119.958 261.823 120.689 263.204 121.975C264.584 123.262 265.439 125.014 265.605 126.894L273.937 242.629C274.015 243.522 273.904 244.421 273.613 245.269C273.322 246.117 272.857 246.894 272.248 247.551C271.638 248.208 270.898 248.731 270.075 249.085C269.251 249.439 268.363 249.616 267.467 249.606Z" fill="#007456"/>
<path d="M268.116 249.606H98.5013C96.6133 249.572 94.8046 248.841 93.4241 247.552C92.0436 246.264 91.1889 244.51 91.0248 242.629L82.693 126.894C82.6155 126.001 82.7258 125.102 83.0168 124.255C83.3079 123.408 83.7732 122.631 84.3827 121.974C84.9923 121.318 85.7327 120.796 86.5561 120.443C87.3795 120.09 88.2678 119.913 89.1636 119.924H258.778C260.665 119.958 262.473 120.689 263.853 121.975C265.233 123.262 266.089 125.014 266.255 126.894L274.587 242.629C274.665 243.522 274.556 244.422 274.265 245.27C273.975 246.118 273.51 246.896 272.9 247.554C272.29 248.211 271.55 248.734 270.726 249.087C269.902 249.441 269.013 249.618 268.116 249.606Z" fill="#007456"/>
<path opacity="0.5" d="M268.116 249.606H98.5013C96.6133 249.572 94.8046 248.841 93.4241 247.552C92.0436 246.264 91.1889 244.51 91.0248 242.629L82.693 126.894C82.6155 126.001 82.7258 125.102 83.0168 124.255C83.3079 123.408 83.7732 122.631 84.3827 121.974C84.9923 121.318 85.7327 120.796 86.5561 120.443C87.3795 120.09 88.2678 119.913 89.1636 119.924H258.778C260.665 119.958 262.473 120.689 263.853 121.975C265.233 123.262 266.089 125.014 266.255 126.894L274.587 242.629C274.665 243.522 274.556 244.422 274.265 245.27C273.975 246.118 273.51 246.896 272.9 247.554C272.29 248.211 271.55 248.734 270.726 249.087C269.902 249.441 269.013 249.618 268.116 249.606Z" fill="white"/>
<path d="M259.032 123.408H89.4169H88.8466C84.5144 123.765 85.4014 130.362 89.7733 130.362H259.673C264.053 130.362 263.99 123.765 259.602 123.408H259.032Z" fill="#007456"/>
<path d="M93.8364 126.895C93.853 127.099 93.8266 127.304 93.759 127.498C93.6913 127.691 93.5839 127.868 93.4436 128.017C93.3033 128.167 93.1332 128.285 92.9444 128.364C92.7556 128.444 92.5522 128.483 92.3474 128.479C91.9169 128.473 91.504 128.307 91.1881 128.015C90.8722 127.722 90.6758 127.323 90.6367 126.895C90.6201 126.691 90.6462 126.486 90.7134 126.294C90.7806 126.101 90.8873 125.924 91.0268 125.775C91.1662 125.626 91.3353 125.508 91.5232 125.428C91.711 125.348 91.9135 125.308 92.1177 125.311C92.5495 125.315 92.9645 125.479 93.282 125.772C93.5996 126.064 93.7971 126.465 93.8364 126.895Z" fill="#FAFAFA"/>
<path d="M99.2768 126.895C99.2934 127.099 99.2671 127.304 99.1994 127.498C99.1318 127.691 99.0243 127.868 98.884 128.017C98.7437 128.167 98.5737 128.285 98.3848 128.364C98.196 128.444 97.9926 128.483 97.7878 128.479C97.3574 128.473 96.9444 128.307 96.6285 128.015C96.3126 127.722 96.1162 127.323 96.0771 126.895C96.0605 126.691 96.0867 126.486 96.1538 126.294C96.221 126.101 96.3278 125.924 96.4672 125.775C96.6067 125.626 96.7757 125.508 96.9636 125.428C97.1515 125.348 97.354 125.308 97.5581 125.311C97.99 125.315 98.4049 125.479 98.7224 125.772C99.04 126.064 99.2375 126.465 99.2768 126.895Z" fill="#FAFAFA"/>
<path d="M104.71 126.895C104.727 127.098 104.7 127.303 104.633 127.496C104.566 127.689 104.459 127.865 104.32 128.014C104.18 128.164 104.011 128.282 103.823 128.362C103.636 128.442 103.433 128.482 103.229 128.479C102.798 128.475 102.384 128.31 102.068 128.017C101.752 127.724 101.556 127.324 101.518 126.895C101.5 126.691 101.526 126.486 101.592 126.292C101.659 126.099 101.766 125.922 101.906 125.773C102.045 125.623 102.215 125.505 102.403 125.425C102.592 125.346 102.795 125.307 102.999 125.311C103.43 125.317 103.843 125.482 104.159 125.775C104.474 126.067 104.671 126.466 104.71 126.895Z" fill="#FAFAFA"/>
<path d="M263.617 238.059H101.376C100.691 238.048 100.034 237.782 99.5335 237.314C99.033 236.845 98.7243 236.208 98.6675 235.525L91.8167 140.35C91.7862 140.023 91.8255 139.694 91.932 139.384C92.0386 139.074 92.2099 138.79 92.4346 138.551C92.6593 138.312 92.9323 138.123 93.2354 137.998C93.5385 137.872 93.8648 137.813 94.1927 137.823H256.473C257.158 137.833 257.815 138.097 258.315 138.564C258.816 139.031 259.125 139.668 259.182 140.35L266.041 235.525C266.071 235.855 266.029 236.189 265.919 236.502C265.81 236.816 265.634 237.102 265.405 237.342C265.175 237.582 264.897 237.77 264.588 237.894C264.28 238.018 263.949 238.074 263.617 238.059Z" fill="white"/>
<path d="M195.252 201.802L192.607 165.116L184.608 160.301H162.582L165.576 201.802H195.252Z" fill="white"/>
<path d="M195.251 202.181H165.575C165.477 202.183 165.382 202.148 165.309 202.081C165.237 202.015 165.193 201.923 165.187 201.825L162.201 160.324C162.197 160.272 162.205 160.22 162.222 160.17C162.24 160.121 162.268 160.076 162.304 160.039C162.339 160 162.382 159.968 162.429 159.946C162.477 159.925 162.529 159.913 162.581 159.912H184.607C184.676 159.915 184.744 159.934 184.805 159.968L192.804 164.783C192.858 164.814 192.903 164.857 192.937 164.91C192.97 164.962 192.989 165.022 192.994 165.084L195.624 201.769C195.629 201.823 195.623 201.877 195.605 201.927C195.587 201.978 195.558 202.024 195.521 202.062C195.486 202.099 195.445 202.129 195.398 202.149C195.352 202.17 195.302 202.181 195.251 202.181ZM165.947 201.389H194.832L192.234 165.314L184.536 160.68H162.993L165.947 201.389Z" fill="#007456"/>
<path d="M192.607 165.116L184.607 160.301L187.546 166.684L192.607 165.116Z" fill="#EBEBEB"/>
<path d="M187.545 167.064C187.472 167.063 187.401 167.042 187.339 167.003C187.277 166.964 187.228 166.908 187.197 166.842L184.258 160.459C184.224 160.384 184.214 160.3 184.23 160.219C184.245 160.138 184.286 160.064 184.346 160.007C184.408 159.953 184.487 159.921 184.569 159.914C184.651 159.906 184.734 159.925 184.805 159.968L192.804 164.783C192.869 164.822 192.921 164.878 192.955 164.945C192.988 165.013 193.002 165.088 192.994 165.163C192.984 165.236 192.953 165.304 192.906 165.361C192.858 165.417 192.795 165.458 192.725 165.48L187.656 167.064H187.545ZM185.478 161.266L187.751 166.216L191.711 165.005L185.478 161.266Z" fill="#007456"/>
<path d="M175.032 178.992C175.044 179.208 175.012 179.423 174.937 179.625C174.863 179.828 174.748 180.013 174.6 180.169C174.452 180.326 174.273 180.45 174.075 180.535C173.877 180.62 173.664 180.664 173.448 180.664C172.996 180.656 172.563 180.48 172.232 180.172C171.902 179.863 171.697 179.443 171.658 178.992C171.638 178.775 171.664 178.556 171.735 178.349C171.806 178.143 171.92 177.954 172.07 177.795C172.22 177.636 172.402 177.511 172.604 177.428C172.806 177.345 173.024 177.306 173.242 177.313C173.695 177.323 174.128 177.5 174.458 177.81C174.789 178.12 174.993 178.541 175.032 178.992Z" fill="#007456"/>
<path d="M185.883 178.992C185.902 179.208 185.875 179.427 185.803 179.632C185.732 179.838 185.617 180.026 185.467 180.184C185.318 180.342 185.136 180.466 184.935 180.549C184.733 180.632 184.516 180.67 184.299 180.663C183.846 180.655 183.412 180.48 183.08 180.171C182.748 179.863 182.542 179.443 182.501 178.992C182.488 178.776 182.519 178.559 182.593 178.356C182.667 178.153 182.781 177.967 182.93 177.81C183.078 177.652 183.257 177.527 183.456 177.441C183.655 177.356 183.869 177.312 184.085 177.313C184.54 177.319 184.976 177.494 185.308 177.805C185.641 178.115 185.845 178.538 185.883 178.992Z" fill="#007456"/>
<path d="M188.955 189.875C188.859 189.873 188.766 189.836 188.696 189.77C188.626 189.704 188.582 189.614 188.575 189.518C188.377 186.818 184.147 184.624 179.15 184.624C175.831 184.624 172.853 185.614 171.38 187.198C171.078 187.49 170.841 187.843 170.685 188.233C170.529 188.624 170.459 189.043 170.477 189.463C170.481 189.515 170.474 189.567 170.458 189.616C170.441 189.666 170.415 189.712 170.381 189.751C170.312 189.83 170.214 189.879 170.109 189.887C170.004 189.894 169.9 189.859 169.821 189.79C169.742 189.721 169.693 189.623 169.685 189.518C169.662 188.993 169.748 188.469 169.939 187.979C170.13 187.49 170.421 187.045 170.794 186.675C172.378 184.941 175.602 183.855 179.126 183.855C184.615 183.855 189.089 186.319 189.311 189.463C189.314 189.513 189.308 189.563 189.292 189.61C189.275 189.658 189.25 189.701 189.217 189.739C189.184 189.776 189.144 189.807 189.099 189.829C189.054 189.851 189.005 189.864 188.955 189.867V189.875Z" fill="#007456"/>
<path d="M168.831 175.601C168.734 175.599 168.642 175.563 168.57 175.498C168.497 175.425 168.457 175.327 168.457 175.225C168.457 175.122 168.497 175.024 168.57 174.952L170.256 173.138C170.329 173.068 170.425 173.029 170.526 173.029C170.626 173.029 170.723 173.068 170.795 173.138C170.83 173.173 170.859 173.215 170.878 173.261C170.897 173.308 170.907 173.357 170.907 173.407C170.907 173.457 170.897 173.507 170.878 173.553C170.859 173.599 170.83 173.641 170.795 173.676L169.108 175.49C169.072 175.526 169.028 175.555 168.981 175.574C168.933 175.593 168.882 175.602 168.831 175.601Z" fill="#007456"/>
<path d="M188.163 175.601C188.067 175.597 187.975 175.56 187.902 175.498L185.962 173.684C185.925 173.649 185.896 173.607 185.876 173.56C185.856 173.513 185.846 173.462 185.846 173.411C185.846 173.36 185.856 173.31 185.876 173.263C185.896 173.216 185.925 173.173 185.962 173.138C186.034 173.068 186.13 173.029 186.231 173.029C186.331 173.029 186.428 173.068 186.5 173.138L188.441 174.952C188.476 174.987 188.504 175.029 188.523 175.075C188.542 175.121 188.552 175.171 188.552 175.221C188.552 175.271 188.542 175.32 188.523 175.367C188.504 175.413 188.476 175.455 188.441 175.49C188.365 175.56 188.266 175.6 188.163 175.601Z" fill="#007456"/>
<path d="M160.189 209.998H161.979L164.561 213.435L164.316 209.998H166.122L166.565 216.207H164.736L162.169 212.794L162.415 216.207H160.609L160.189 209.998Z" fill="#007456"/>
<path d="M167.373 213.104C167.312 212.682 167.341 212.252 167.458 211.843C167.576 211.433 167.779 211.053 168.054 210.728C168.355 210.432 168.715 210.203 169.111 210.057C169.507 209.911 169.93 209.851 170.351 209.88C171.243 209.832 172.12 210.13 172.798 210.712C173.419 211.331 173.779 212.164 173.804 213.04C173.869 213.645 173.788 214.256 173.566 214.822C173.361 215.278 173.018 215.658 172.584 215.907C172.064 216.186 171.479 216.32 170.889 216.296C170.283 216.315 169.681 216.201 169.123 215.963C168.635 215.728 168.223 215.361 167.935 214.902C167.595 214.361 167.402 213.742 167.373 213.104ZM169.297 213.104C169.29 213.59 169.446 214.064 169.741 214.45C169.865 214.586 170.017 214.694 170.186 214.765C170.356 214.836 170.539 214.869 170.723 214.862C170.899 214.874 171.075 214.844 171.236 214.774C171.397 214.703 171.539 214.595 171.65 214.458C171.877 214.026 171.952 213.529 171.864 213.048C171.867 212.583 171.71 212.13 171.42 211.765C171.293 211.632 171.139 211.526 170.969 211.457C170.798 211.387 170.614 211.355 170.43 211.361C170.258 211.354 170.086 211.387 169.929 211.459C169.772 211.531 169.634 211.638 169.527 211.773C169.295 212.181 169.214 212.658 169.297 213.12V213.104Z" fill="#007456"/>
<path d="M177.526 209.998H180.378C180.848 209.983 181.316 210.061 181.756 210.228C182.104 210.373 182.413 210.598 182.659 210.885C182.908 211.176 183.099 211.512 183.221 211.875C183.349 212.265 183.429 212.669 183.458 213.079C183.519 213.596 183.479 214.121 183.34 214.623C183.231 214.971 183.037 215.287 182.777 215.542C182.56 215.771 182.287 215.941 181.985 216.033C181.617 216.14 181.236 216.198 180.853 216.207H178.009L177.526 209.998ZM179.546 211.408L179.791 214.797H180.259C180.548 214.816 180.837 214.77 181.106 214.663C181.284 214.56 181.414 214.393 181.471 214.196C181.561 213.844 181.583 213.478 181.534 213.118C181.549 212.635 181.401 212.161 181.114 211.772C180.967 211.639 180.794 211.538 180.606 211.475C180.418 211.412 180.219 211.389 180.021 211.408H179.546Z" fill="#007456"/>
<path d="M188.06 215.178H185.882L185.653 216.207H183.696L185.581 209.998H187.704L190.484 216.207H188.472L188.06 215.178ZM187.561 213.839L186.722 211.606L186.199 213.839H187.561Z" fill="#007456"/>
<path d="M189.581 209.998H195.41L195.521 211.535H193.565L193.897 216.207H191.981L191.648 211.535H189.692L189.581 209.998Z" fill="#007456"/>
<path d="M199.877 215.178H197.699L197.469 216.207H195.513L197.398 209.998H199.489L202.261 216.207H200.257L199.877 215.178ZM199.378 213.839L198.53 211.606L198 213.839H199.378Z" fill="#007456"/>
<path d="M280.123 137.079C280.828 136.722 281.707 136.287 282.452 135.835C283.196 135.384 284.036 134.948 284.828 134.473C286.372 133.515 287.94 132.572 289.421 131.527C292.396 129.491 295.184 127.196 297.753 124.668C298.078 124.367 298.363 124.034 298.672 123.71L299.123 123.227L299.345 122.989L299.456 122.862C299.345 123.076 299.456 123.013 299.456 122.807C299.525 122.524 299.565 122.235 299.575 121.944C299.556 120.26 299.363 118.582 298.996 116.938C298.292 113.39 297.222 109.731 296.169 106.151L299.242 104.805C301.181 108.239 302.801 111.845 304.081 115.576C304.8 117.592 305.258 119.692 305.443 121.825C305.492 122.488 305.471 123.154 305.38 123.813C305.262 124.744 304.932 125.636 304.414 126.418L304.279 126.601L304.176 126.727L304.057 126.878L303.812 127.179L303.321 127.773C302.996 128.161 302.679 128.565 302.331 128.937C299.622 131.942 296.601 134.651 293.318 137.015C291.734 138.187 290.055 139.312 288.336 140.334C287.489 140.849 286.625 141.34 285.746 141.823C284.867 142.306 284.012 142.749 282.998 143.225L280.123 137.079Z" fill="#FFB573"/>
<path d="M273.074 323.278C273.667 323.264 274.257 323.184 274.833 323.041C274.862 323.032 274.888 323.016 274.909 322.993C274.93 322.971 274.944 322.944 274.951 322.914C274.955 322.884 274.951 322.853 274.938 322.825C274.926 322.797 274.905 322.773 274.88 322.756C274.65 322.605 272.639 321.306 271.863 321.655C271.777 321.695 271.703 321.757 271.649 321.835C271.594 321.913 271.562 322.004 271.554 322.098C271.523 322.248 271.531 322.403 271.576 322.548C271.622 322.694 271.704 322.825 271.815 322.93C272.179 323.194 272.626 323.318 273.074 323.278ZM274.381 322.819C273.233 323.049 272.362 323.009 272.005 322.7C271.934 322.627 271.882 322.538 271.854 322.439C271.827 322.341 271.824 322.237 271.847 322.138C271.85 322.096 271.864 322.056 271.887 322.021C271.911 321.986 271.943 321.958 271.981 321.94C272.401 321.758 273.565 322.344 274.381 322.819Z" fill="#007456"/>
<path d="M274.824 323.041H274.903C274.926 323.027 274.946 323.007 274.96 322.984C274.973 322.96 274.981 322.934 274.982 322.906C274.982 322.819 274.982 320.911 274.254 320.277C274.167 320.193 274.061 320.13 273.946 320.093C273.831 320.056 273.708 320.045 273.588 320.063C273.464 320.064 273.343 320.108 273.246 320.187C273.15 320.266 273.083 320.376 273.058 320.499C272.907 321.291 274.111 322.677 274.745 323.041C274.771 323.049 274.798 323.049 274.824 323.041ZM273.691 320.356C273.82 320.357 273.944 320.405 274.04 320.491C274.458 321.107 274.674 321.837 274.658 322.582C274.024 322.075 273.272 320.998 273.367 320.546C273.367 320.475 273.422 320.38 273.62 320.356H273.691Z" fill="#007456"/>
<path d="M274.207 117.271C273.415 121.231 271.831 129.151 274.563 131.805C274.563 131.805 273.486 135.765 266.176 135.765C258.129 135.765 262.335 131.805 262.335 131.805C266.722 130.759 266.604 127.504 265.843 124.439L274.207 117.271Z" fill="#FFB573"/>
<path d="M260.791 133.388C259.531 133.562 260.608 130.291 261.115 129.95C262.303 129.158 277.636 128.058 277.534 129.95C277.47 130.742 277.09 132.326 276.425 132.849C275.759 133.372 271.815 131.74 260.791 133.388Z" fill="#263238"/>
<path d="M263.293 132.264C262.287 132.605 262.382 129.31 262.722 128.914C263.514 127.995 275.925 124.811 276.289 126.609C276.432 127.401 276.503 128.985 276.076 129.547C275.648 130.11 272.005 129.183 263.293 132.264Z" fill="#263238"/>
<path d="M258.676 110.176C258.626 110.178 258.576 110.168 258.531 110.148C258.486 110.127 258.446 110.096 258.415 110.057C258.173 109.745 257.861 109.495 257.505 109.325C257.149 109.156 256.758 109.073 256.363 109.083C256.322 109.088 256.28 109.085 256.24 109.074C256.2 109.063 256.163 109.044 256.13 109.018C256.097 108.992 256.07 108.96 256.051 108.924C256.031 108.887 256.019 108.847 256.015 108.806C256.008 108.724 256.033 108.643 256.085 108.579C256.136 108.516 256.211 108.475 256.292 108.465C256.791 108.44 257.288 108.535 257.742 108.743C258.195 108.951 258.592 109.266 258.898 109.661C258.951 109.725 258.976 109.808 258.969 109.891C258.961 109.974 258.922 110.051 258.858 110.104C258.804 110.143 258.742 110.168 258.676 110.176Z" fill="#263238"/>
<path d="M257.139 114.049C256.779 115.312 256.246 116.52 255.555 117.637C255.845 117.804 256.169 117.905 256.502 117.934C256.836 117.962 257.172 117.918 257.487 117.803L257.139 114.049Z" fill="#FF5652"/>
<path d="M257.527 113.09C257.582 113.621 257.337 114.08 256.988 114.112C256.64 114.144 256.315 113.748 256.268 113.209C256.22 112.67 256.458 112.219 256.798 112.187C257.139 112.156 257.472 112.552 257.527 113.09Z" fill="#263238"/>
<path d="M256.957 112.203L255.643 111.957C255.643 111.957 256.395 112.892 256.957 112.203Z" fill="#263238"/>
<path d="M282.507 322.89H275.87L276.393 307.525H283.03L282.507 322.89Z" fill="#FFB573"/>
<path d="M275.347 322.121H282.8C282.928 322.118 283.053 322.162 283.151 322.246C283.249 322.329 283.313 322.445 283.33 322.573L284.178 328.465C284.194 328.614 284.179 328.765 284.134 328.908C284.088 329.051 284.012 329.182 283.912 329.294C283.812 329.405 283.689 329.494 283.552 329.555C283.415 329.615 283.266 329.646 283.116 329.645C280.519 329.606 279.267 329.447 275.988 329.447C273.969 329.447 271.022 329.661 268.243 329.661C265.463 329.661 265.304 326.905 266.468 326.659C271.664 325.535 272.488 323.998 274.238 322.525C274.55 322.266 274.942 322.123 275.347 322.121Z" fill="#263238"/>
<g opacity="0.2">
<path d="M283.029 307.525H276.392L276.123 315.445H282.76L283.029 307.525Z" fill="black"/>
</g>
<path d="M256.109 140.975C252.048 139.396 248.07 137.612 244.19 135.629C240.182 133.671 236.364 131.346 232.785 128.683C231.829 127.934 230.924 127.122 230.076 126.252C229.855 126.014 229.633 125.792 229.419 125.515C229.168 125.232 228.935 124.933 228.722 124.62C228.138 123.769 227.773 122.787 227.661 121.761C227.574 120.788 227.706 119.809 228.049 118.894C228.323 118.159 228.699 117.466 229.166 116.835C229.931 115.789 230.834 114.851 231.851 114.047C233.645 112.618 235.583 111.379 237.632 110.348C238.614 109.826 239.612 109.358 240.626 108.923C241.64 108.487 242.638 108.075 243.723 107.703L245.124 110.752C241.671 112.93 238.091 115.33 235.462 118.007C234.874 118.603 234.356 119.265 233.918 119.979C233.537 120.605 233.545 121.072 233.609 121.032C233.672 120.993 233.609 121.032 233.72 121.112L234.036 121.452C234.155 121.595 234.322 121.737 234.472 121.888C235.143 122.505 235.855 123.077 236.603 123.599C238.237 124.756 239.941 125.814 241.703 126.767C243.485 127.764 245.322 128.707 247.192 129.61C250.93 131.4 254.795 133.118 258.588 134.687L256.109 140.975Z" fill="#FFB573"/>
<path d="M247.104 108.622L248.197 106.246L243.192 104.543C243.192 104.543 241.608 109.224 243.485 111.378C244.269 111.254 245.011 110.938 245.643 110.457C246.274 109.976 246.777 109.345 247.104 108.622Z" fill="#FFB573"/>
<path d="M248.174 101.107L244.19 99.9512L243.192 104.513L248.174 106.248V101.107Z" fill="#FFB573"/>
<path d="M299.654 106.476L300.232 100.932L295.1 102.167C295.1 102.167 295.021 107.379 297.737 108.202L299.654 106.476Z" fill="#FFB573"/>
<path d="M297.76 97.0273L294.41 98.5876L295.099 102.128L300.231 100.916L297.76 97.0273Z" fill="#FFB573"/>
<path d="M275.252 109.494C275.498 116.075 275.735 118.855 272.765 122.538C268.291 128.082 260.157 126.933 257.955 120.558C255.975 114.824 255.912 105.027 262.058 101.795C263.409 101.077 264.921 100.716 266.451 100.746C267.981 100.776 269.478 101.197 270.8 101.968C272.122 102.739 273.225 103.835 274.004 105.152C274.783 106.469 275.213 107.964 275.252 109.494Z" fill="#FFB573"/>
<path d="M272.385 122.529C278.847 119.734 283.093 113.817 281.303 104.646C279.584 95.8468 273.644 94.9756 271.189 96.7972C268.734 98.6188 262.611 95.9023 258.937 98.9911C252.601 104.353 258.588 110.079 261.724 113.54C263.594 117.389 266.049 125.262 272.385 122.529Z" fill="#263238"/>
<path d="M269.701 103.071C270.489 104.082 271.556 104.841 272.771 105.252C273.985 105.664 275.293 105.711 276.534 105.388C277.775 105.065 278.894 104.385 279.753 103.433C280.612 102.481 281.174 101.298 281.368 100.031C281.563 98.7633 281.382 97.4666 280.848 96.3007C280.314 95.1348 279.451 94.1508 278.364 93.4701C277.277 92.7894 276.015 92.4419 274.733 92.4704C273.451 92.4989 272.205 92.9021 271.15 93.6304C269.706 94.6904 268.743 96.2804 268.471 98.0507C268.199 99.821 268.641 101.627 269.701 103.071Z" fill="#007456"/>
<path d="M271.379 97.4159C270.452 92.1095 275.466 88.0228 282.182 89.9949C288.898 91.9669 285.35 97.9149 283.964 102.667C282.578 107.419 286.205 111.949 287.71 108.33C289.215 104.71 286.681 103.578 286.681 103.578C286.681 103.578 293.809 105.423 287.187 113.462C280.566 121.501 274.571 112.622 276.194 107.387C277.509 103.182 272.258 102.429 271.379 97.4159Z" fill="#263238"/>
<path d="M264.671 99.4206C261.606 97.8366 256.419 96.5298 253.465 101.504C252.071 103.88 252.609 107.048 252.609 107.048L261.63 107.642L264.671 99.4206Z" fill="#263238"/>
<path d="M251.548 105.477C251.494 105.473 251.445 105.449 251.409 105.409C251.374 105.369 251.355 105.317 251.358 105.264C251.358 105.129 251.587 101.945 253.512 99.9493C258.161 95.1181 263.61 99.1573 265.162 100.464C265.196 100.499 265.215 100.546 265.216 100.594C265.218 100.643 265.201 100.691 265.17 100.728C265.138 100.765 265.095 100.789 265.046 100.796C264.998 100.803 264.949 100.792 264.909 100.765C263.412 99.482 258.2 95.6408 253.821 100.219C251.999 102.111 251.777 105.256 251.777 105.287C251.777 105.316 251.77 105.343 251.757 105.369C251.745 105.394 251.727 105.417 251.706 105.435C251.684 105.453 251.659 105.466 251.631 105.473C251.604 105.481 251.576 105.482 251.548 105.477Z" fill="#263238"/>
<path d="M262.825 113.256C262.79 114.502 262.329 115.698 261.519 116.646C260.426 117.929 259.143 117.295 258.881 115.854C258.62 114.578 258.881 112.369 260.259 111.601C261.637 110.832 262.841 111.814 262.825 113.256Z" fill="#FFB573"/>
<path d="M261.4 173.543C261.4 173.543 261.828 219.598 265.82 245.259C269.051 265.985 275.015 313.917 275.015 313.917H284.067C284.067 313.917 284.947 267.64 283.275 247.144C279.133 195.268 289.833 185.566 281.2 173.543H261.4Z" fill="#263238"/>
<path opacity="0.1" d="M261.4 173.543C261.4 173.543 261.828 219.598 265.82 245.259C269.051 265.985 275.015 313.917 275.015 313.917H284.067C284.067 313.917 284.947 267.64 283.275 247.144C279.133 195.268 289.833 185.566 281.2 173.543H261.4Z" fill="white"/>
<path opacity="0.3" d="M266.16 194.437C269.328 208.336 266.802 230.227 265.067 239.866C263.23 225.23 262.303 206.261 261.844 192.346C263.483 189.701 265.036 189.526 266.16 194.437Z" fill="black"/>
<path d="M273.779 314.092H285.303L285.905 310.052L273.716 309.641L273.779 314.092Z" fill="#007456"/>
<path d="M277.066 134.639C278.151 132.485 283.98 131.131 287.164 131.139L289.54 141.72C289.54 141.72 283.204 151.137 280.559 150.139C277.446 148.99 274.746 139.288 277.066 134.639Z" fill="#007456"/>
<path opacity="0.4" d="M277.066 134.639C278.151 132.485 283.98 131.131 287.164 131.139L289.54 141.72C289.54 141.72 283.204 151.137 280.559 150.139C277.446 148.99 274.746 139.288 277.066 134.639Z" fill="black"/>
<path d="M270.35 311.501C270.363 311.478 270.37 311.452 270.37 311.426C270.37 311.399 270.363 311.374 270.35 311.351C270.335 311.32 270.311 311.295 270.281 311.28C270.251 311.264 270.217 311.258 270.184 311.264C269.851 311.319 266.92 311.778 266.524 312.618C266.482 312.694 266.46 312.78 266.46 312.867C266.46 312.955 266.482 313.04 266.524 313.117C266.592 313.242 266.69 313.349 266.809 313.427C266.928 313.506 267.064 313.554 267.206 313.568C268.164 313.663 269.582 312.333 270.294 311.525L270.35 311.501ZM266.833 312.721C267.103 312.277 268.623 311.865 269.78 311.652C268.734 312.713 267.815 313.307 267.277 313.236C267.184 313.226 267.094 313.194 267.017 313.141C266.939 313.089 266.876 313.018 266.833 312.935C266.816 312.905 266.807 312.87 266.807 312.836C266.807 312.801 266.816 312.767 266.833 312.737C266.833 312.737 266.825 312.729 266.833 312.721Z" fill="#007456"/>
<path d="M270.35 311.501C270.363 311.478 270.37 311.452 270.37 311.426C270.37 311.399 270.363 311.373 270.35 311.35C270.302 311.295 269.13 309.941 268.045 309.869C267.889 309.856 267.731 309.875 267.583 309.926C267.434 309.976 267.298 310.057 267.182 310.162C266.857 310.455 266.889 310.709 266.968 310.867C267.308 311.548 269.415 311.786 270.263 311.604C270.284 311.595 270.304 311.581 270.319 311.563C270.334 311.545 270.345 311.524 270.35 311.501ZM267.253 310.503C267.288 310.449 267.33 310.401 267.38 310.36C267.462 310.282 267.561 310.222 267.669 310.185C267.777 310.148 267.892 310.135 268.005 310.146C268.742 310.328 269.404 310.735 269.898 311.311C268.956 311.39 267.435 311.105 267.229 310.693C267.216 310.662 267.211 310.628 267.215 310.595C267.22 310.561 267.232 310.53 267.253 310.503Z" fill="#007456"/>
<path d="M277.263 308.69L271.197 311.391L268.496 305.76L264.964 298.394L264.544 297.539L270.611 294.838L271.078 295.804L274.499 302.94L277.263 308.69Z" fill="#FFB573"/>
<path opacity="0.2" d="M274.5 302.941L268.496 305.76L264.964 298.395L271.078 295.805L274.5 302.941Z" fill="black"/>
<path d="M254.287 173.543C254.287 173.543 234.907 221.76 240.158 244.411C244.91 264.916 265.898 303.748 265.898 303.748L274.032 299.677C274.032 299.677 261.051 252.798 259.649 242.613C256.909 222.813 274.515 194.832 274.515 173.543H254.287Z" fill="#263238"/>
<path opacity="0.1" d="M254.287 173.543C254.287 173.543 234.907 221.76 240.158 244.411C244.91 264.916 265.898 303.748 265.898 303.748L274.032 299.677C274.032 299.677 261.051 252.798 259.649 242.613C256.909 222.813 274.515 194.832 274.515 173.543H254.287Z" fill="white"/>
<path d="M270.12 310.543L276.14 306.164C276.241 306.084 276.368 306.045 276.497 306.054C276.626 306.063 276.747 306.119 276.837 306.211L280.995 310.48C281.095 310.592 281.172 310.723 281.218 310.866C281.265 311.009 281.281 311.16 281.265 311.309C281.249 311.459 281.202 311.603 281.127 311.733C281.052 311.863 280.95 311.976 280.828 312.064C278.698 313.553 277.597 314.171 274.952 316.095C273.32 317.283 270.073 319.905 267.824 321.544C265.574 323.184 263.864 321.045 264.656 320.166C268.204 316.206 268.948 313.751 269.503 311.526C269.588 311.136 269.807 310.789 270.12 310.543Z" fill="#263238"/>
<path d="M265.376 305.467L275.854 300.675L274.516 296.406L263.293 301.523L265.376 305.467Z" fill="#007456"/>
<path d="M259.428 134.134C258.565 131.885 250.993 129.382 247.192 128.59L245.521 141.04C245.521 141.04 251.73 149.958 254.446 149.221C257.662 148.35 261.297 138.957 259.428 134.134Z" fill="#007456"/>
<path opacity="0.4" d="M259.428 134.134C258.565 131.885 250.993 129.382 247.192 128.59L245.521 141.04C245.521 141.04 251.73 149.958 254.446 149.221C257.662 148.35 261.297 138.957 259.428 134.134Z" fill="black"/>
<path d="M251.12 133.507C251.12 133.507 247.952 134.616 254.288 173.542H281.216C280.765 162.581 280.749 155.817 285.968 133.309C282.195 132.53 278.37 132.027 274.524 131.804C270.453 131.511 266.366 131.511 262.295 131.804C257.076 132.263 251.12 133.507 251.12 133.507Z" fill="#007456"/>
<path opacity="0.4" d="M251.12 133.507C251.12 133.507 247.952 134.616 254.288 173.542H281.216C280.765 162.581 280.749 155.817 285.968 133.309C282.195 132.53 278.37 132.027 274.524 131.804C270.453 131.511 266.366 131.511 262.295 131.804C257.076 132.263 251.12 133.507 251.12 133.507Z" fill="black"/>
<path d="M281.636 171.968L282.847 174.344C282.942 174.534 282.721 174.724 282.412 174.724H254.153C253.908 174.724 253.71 174.605 253.694 174.447L253.448 172.071C253.448 171.904 253.646 171.762 253.908 171.762H281.16C281.251 171.747 281.344 171.759 281.428 171.796C281.512 171.832 281.584 171.892 281.636 171.968Z" fill="#007456"/>
<path opacity="0.3" d="M281.636 171.968L282.847 174.344C282.942 174.534 282.721 174.724 282.412 174.724H254.153C253.908 174.724 253.71 174.605 253.694 174.447L253.448 172.071C253.448 171.904 253.646 171.762 253.908 171.762H281.16C281.251 171.747 281.344 171.759 281.428 171.796C281.512 171.832 281.584 171.892 281.636 171.968Z" fill="white"/>
<path d="M277.992 175.032H278.721C278.871 175.032 278.982 174.953 278.966 174.866L278.626 171.698C278.626 171.603 278.491 171.531 278.349 171.531H277.612C277.47 171.531 277.359 171.603 277.367 171.698L277.707 174.866C277.699 174.937 277.826 175.032 277.992 175.032Z" fill="#263238"/>
<path d="M260.26 175.032H260.989C261.131 175.032 261.242 174.953 261.234 174.866L260.893 171.698C260.893 171.603 260.759 171.531 260.608 171.531H259.88C259.729 171.531 259.626 171.603 259.634 171.698L259.975 174.866C259.983 174.937 260.109 175.032 260.26 175.032Z" fill="#263238"/>
</svg>
