<svg width="396" height="396" viewBox="0 0 396 396" fill="none" xmlns="http://www.w3.org/2000/svg">
<path d="M396 302.859H0V303.057H396V302.859Z" fill="#EBEBEB"/>
<path d="M356.321 315.604H330.09V315.802H356.321V315.604Z" fill="#EBEBEB"/>
<path d="M262.326 317.758H255.443V317.956H262.326V317.758Z" fill="#EBEBEB"/>
<path d="M329.298 308.254H314.1V308.452H329.298V308.254Z" fill="#EBEBEB"/>
<path d="M75.7553 309.582H41.5488V309.78H75.7553V309.582Z" fill="#EBEBEB"/>
<path d="M87.8239 309.582H82.8105V309.78H87.8239V309.582Z" fill="#EBEBEB"/>
<path d="M178.32 312.926H104.125V313.124H178.32V312.926Z" fill="#EBEBEB"/>
<path d="M187.703 267.536H34.7761C33.5781 267.534 32.4299 267.057 31.5835 266.209C30.7371 265.361 30.2617 264.212 30.2617 263.014V48.0413C30.2721 46.8502 30.7521 45.7112 31.5974 44.8719C32.4426 44.0326 33.5849 43.5606 34.7761 43.5586H187.703C188.903 43.5586 190.053 44.0351 190.901 44.8832C191.749 45.7313 192.226 46.8815 192.226 48.0809V263.014C192.226 264.213 191.749 265.364 190.901 266.212C190.053 267.06 188.903 267.536 187.703 267.536ZM34.7761 43.717C33.6306 43.7191 32.5327 44.1756 31.7235 44.9864C30.9142 45.7971 30.4597 46.8958 30.4597 48.0413V263.014C30.4597 264.159 30.9142 265.258 31.7235 266.069C32.5327 266.88 33.6306 267.336 34.7761 267.338H187.703C188.85 267.336 189.948 266.88 190.759 266.069C191.569 265.259 192.026 264.16 192.028 263.014V48.0413C192.026 46.8951 191.569 45.7964 190.759 44.9859C189.948 44.1754 188.85 43.7191 187.703 43.717H34.7761Z" fill="#EBEBEB"/>
<path d="M359.022 267.536H206.087C204.888 267.534 203.739 267.057 202.891 266.209C202.044 265.362 201.567 264.213 201.564 263.014V48.0413C201.577 46.8494 202.059 45.7105 202.905 44.8714C203.752 44.0323 204.895 43.5606 206.087 43.5586H359.022C360.212 43.5627 361.352 44.0356 362.196 44.8747C363.039 45.7138 363.518 46.8515 363.528 48.0413V263.014C363.528 264.211 363.054 265.358 362.21 266.206C361.365 267.054 360.219 267.532 359.022 267.536ZM206.087 43.717C204.941 43.7191 203.842 44.1754 203.031 44.9859C202.221 45.7964 201.765 46.8951 201.762 48.0413V263.014C201.765 264.16 202.221 265.259 203.031 266.069C203.842 266.88 204.941 267.336 206.087 267.338H359.022C360.168 267.336 361.267 266.88 362.077 266.069C362.888 265.259 363.344 264.16 363.346 263.014V48.0413C363.344 46.8951 362.888 45.7964 362.077 44.9859C361.267 44.1754 360.168 43.7191 359.022 43.717H206.087Z" fill="#EBEBEB"/>
<path d="M345.288 302.859H370.395V258.412H345.288V302.859Z" fill="#F0F0F0"/>
<path d="M323.302 302.859H348.408V268.162H323.302V302.859Z" fill="#F0F0F0"/>
<path d="M307.249 302.859H332.355V239.571H307.249V302.859Z" fill="#F0F0F0"/>
<path d="M290.569 302.859H315.676V188.257H290.569V302.859Z" fill="#F0F0F0"/>
<path d="M228.476 302.859H295.844V197.175H228.476V302.859Z" fill="#F0F0F0"/>
<path d="M57.3809 263.086H21.8359V302.86H57.3809V263.086Z" fill="#F5F5F5"/>
<path d="M88.5059 271.805H52.9609V302.851H88.5059V271.805Z" fill="#F5F5F5"/>
<path d="M111.236 246.223H75.6914V302.859H111.236V246.223Z" fill="#F5F5F5"/>
<path d="M134.861 200.305H99.3164V302.861H134.861V200.305Z" fill="#F5F5F5"/>
<path d="M127.687 302.859H185.852L185.852 177.573H127.687L127.687 302.859Z" fill="#F0F0F0"/>
<path d="M133.214 198.078H135.986V182.832H133.214V198.078Z" fill="#F5F5F5"/>
<path d="M133.214 221.908H135.986V206.662H133.214V221.908Z" fill="#F5F5F5"/>
<path d="M133.214 245.756H135.986V230.51H133.214V245.756Z" fill="#F5F5F5"/>
<path d="M133.214 269.596H135.986V254.35H133.214V269.596Z" fill="#F5F5F5"/>
<path d="M133.214 293.436H135.986V278.19H133.214V293.436Z" fill="#F5F5F5"/>
<path d="M143.035 198.078H145.807V182.832H143.035V198.078Z" fill="#F5F5F5"/>
<path d="M143.035 221.91H145.807V206.664H143.035V221.91Z" fill="#F5F5F5"/>
<path d="M143.035 245.756H145.807V230.51H143.035V245.756Z" fill="#F5F5F5"/>
<path d="M143.035 269.596H145.807V254.35H143.035V269.596Z" fill="#F5F5F5"/>
<path d="M143.035 293.434H145.807V278.188H143.035V293.434Z" fill="#F5F5F5"/>
<path d="M152.847 198.078H155.619V182.832H152.847V198.078Z" fill="#F5F5F5"/>
<path d="M152.847 221.91H155.619V206.664H152.847V221.91Z" fill="#F5F5F5"/>
<path d="M152.847 245.756H155.619V230.51H152.847V245.756Z" fill="#F5F5F5"/>
<path d="M152.847 269.596H155.619V254.35H152.847V269.596Z" fill="#F5F5F5"/>
<path d="M152.847 293.434H155.619V278.188H152.847V293.434Z" fill="#F5F5F5"/>
<path d="M162.669 198.078H165.441V182.832H162.669V198.078Z" fill="#F5F5F5"/>
<path d="M162.669 221.91H165.441V206.664H162.669V221.91Z" fill="#F5F5F5"/>
<path d="M162.669 245.756H165.441V230.51H162.669V245.756Z" fill="#F5F5F5"/>
<path d="M162.669 269.596H165.441V254.35H162.669V269.596Z" fill="#F5F5F5"/>
<path d="M162.669 293.434H165.441V278.188H162.669V293.434Z" fill="#F5F5F5"/>
<path d="M172.474 198.078H175.246V182.832H172.474V198.078Z" fill="#F5F5F5"/>
<path d="M172.474 221.91H175.246V206.664H172.474V221.91Z" fill="#F5F5F5"/>
<path d="M172.474 245.756H175.246V230.51H172.474V245.756Z" fill="#F5F5F5"/>
<path d="M172.474 269.596H175.246V254.35H172.474V269.596Z" fill="#F5F5F5"/>
<path d="M172.474 293.434H175.246V278.188H172.474V293.434Z" fill="#F5F5F5"/>
<path opacity="0.5" d="M185.851 177.574H173.86L168.648 302.861H185.851V177.574Z" fill="#E0E0E0"/>
<path d="M281.841 91.2129L211.281 99.2596V302.859H281.841V91.2129Z" fill="#F0F0F0"/>
<path d="M338.296 91.2129H281.842V302.859H338.296V91.2129Z" fill="#E6E6E6"/>
<path d="M338.294 108.748H211.281V109.833H338.294V108.748Z" fill="#E0E0E0"/>
<path d="M338.294 120.271H211.281V121.357H338.294V120.271Z" fill="#E0E0E0"/>
<path d="M338.294 131.795H211.281V132.88H338.294V131.795Z" fill="#E0E0E0"/>
<path d="M338.294 143.32H211.281V144.405H338.294V143.32Z" fill="#E0E0E0"/>
<path d="M338.294 154.844H211.281V155.929H338.294V154.844Z" fill="#E0E0E0"/>
<path d="M338.294 166.367H211.281V167.452H338.294V166.367Z" fill="#E0E0E0"/>
<path d="M338.294 177.891H211.281V178.976H338.294V177.891Z" fill="#E0E0E0"/>
<path d="M338.294 189.414H211.281V190.499H338.294V189.414Z" fill="#E0E0E0"/>
<path d="M338.294 200.938H211.281V202.023H338.294V200.938Z" fill="#E0E0E0"/>
<path d="M338.294 212.461H211.281V213.546H338.294V212.461Z" fill="#E0E0E0"/>
<path d="M338.294 223.984H211.281V225.069H338.294V223.984Z" fill="#E0E0E0"/>
<path d="M338.294 235.516H211.281V236.601H338.294V235.516Z" fill="#E0E0E0"/>
<path d="M338.294 247.039H211.281V248.124H338.294V247.039Z" fill="#E0E0E0"/>
<path d="M338.294 258.562H211.281V259.648H338.294V258.562Z" fill="#E0E0E0"/>
<path d="M338.294 270.086H211.281V271.171H338.294V270.086Z" fill="#E0E0E0"/>
<path d="M338.294 281.609H211.281V282.694H338.294V281.609Z" fill="#E0E0E0"/>
<path d="M338.294 293.133H211.281V294.218H338.294V293.133Z" fill="#E0E0E0"/>
<path d="M85.5516 302.859H119.021L119.021 128.152H85.5516L85.5516 302.859Z" fill="#F0F0F0"/>
<path d="M85.551 128.151H119.021L106.705 112.723H58.7734L85.551 128.151Z" fill="#FAFAFA"/>
<path d="M85.551 128.151L58.7734 112.723V302.858H85.551V128.151Z" fill="#EBEBEB"/>
<path d="M58.782 137.221H119.021V136.294H58.782V137.221Z" fill="#E0E0E0"/>
<path d="M58.782 147.113H119.021V146.187H58.782V147.113Z" fill="#E0E0E0"/>
<path d="M58.782 157.004H119.021V156.077H58.782V157.004Z" fill="#E0E0E0"/>
<path d="M58.782 166.889H119.021V165.962H58.782V166.889Z" fill="#E0E0E0"/>
<path d="M58.782 176.781H119.021V175.855H58.782V176.781Z" fill="#E0E0E0"/>
<path d="M58.782 186.664H119.021V185.737H58.782V186.664Z" fill="#E0E0E0"/>
<path d="M58.782 196.559H119.021V195.632H58.782V196.559Z" fill="#E0E0E0"/>
<path d="M58.782 206.449H119.021V205.523H58.782V206.449Z" fill="#E0E0E0"/>
<path d="M58.782 216.332H119.021V215.405H58.782V216.332Z" fill="#E0E0E0"/>
<path d="M58.782 226.227H119.021V225.3H58.782V226.227Z" fill="#E0E0E0"/>
<path d="M58.782 236.109H119.021V235.183H58.782V236.109Z" fill="#E0E0E0"/>
<path d="M58.782 246.002H119.021V245.075H58.782V246.002Z" fill="#E0E0E0"/>
<path d="M58.782 255.887H119.021V254.96H58.782V255.887Z" fill="#E0E0E0"/>
<path d="M58.782 265.777H119.021V264.851H58.782V265.777Z" fill="#E0E0E0"/>
<path d="M58.782 275.67H119.021V274.743H58.782V275.67Z" fill="#E0E0E0"/>
<path d="M58.782 285.555H119.021V284.628H58.782V285.555Z" fill="#E0E0E0"/>
<path d="M58.782 295.445H119.021V294.519H58.782V295.445Z" fill="#E0E0E0"/>
<path d="M203.829 302.852H248.965L248.965 147.081H203.829L203.829 302.852Z" fill="#F0F0F0"/>
<path d="M232.824 180.139H240.07V155.135H232.824V180.139Z" fill="#E6E6E6"/>
<path d="M215.06 180.139H222.307V155.135H215.06V180.139Z" fill="#E6E6E6"/>
<path d="M232.824 212.516H240.07V187.512H232.824V212.516Z" fill="#E6E6E6"/>
<path d="M215.06 212.516H222.307V187.512H215.06V212.516Z" fill="#E6E6E6"/>
<path d="M232.824 244.893H240.07V219.889H232.824V244.893Z" fill="#E6E6E6"/>
<path d="M215.06 244.893H222.307V219.889H215.06V244.893Z" fill="#E6E6E6"/>
<path d="M232.824 277.27H240.07V252.266H232.824V277.27Z" fill="#E6E6E6"/>
<path d="M215.06 277.27H222.307V252.266H215.06V277.27Z" fill="#E6E6E6"/>
<path d="M203.821 147.088H248.957L238.376 136.293H193.24L203.821 147.088Z" fill="white"/>
<path d="M203.821 147.088L193.239 136.293L182.65 147.088V302.858H203.821V147.088Z" fill="#E6E6E6"/>
<path d="M150.686 118.735C162.697 118.735 172.434 108.998 172.434 96.9866C172.434 84.9753 162.697 75.2383 150.686 75.2383C138.675 75.2383 128.938 84.9753 128.938 96.9866C128.938 108.998 138.675 118.735 150.686 118.735Z" fill="#FAFAFA"/>
<path d="M311.129 63.8975C305.72 63.3748 300.754 59.5495 293.705 58.4961C290.197 57.9734 288.161 59.2881 286.086 60.5236C283.488 62.1076 280.312 62.8996 276.329 62.8046C271.089 62.6652 265.904 61.714 260.956 59.9851C256.489 58.4644 251.824 56.6428 248.284 57.3002C241.718 58.504 241.528 62.8442 236.095 63.4619C230.662 64.0797 229.672 67.0101 234.178 67.0101H316.721C320.665 67.0101 316.546 64.4123 311.129 63.8975Z" fill="#F5F5F5"/>
<path d="M78.3204 62.994C76.0395 64.3325 71.533 63.5246 64.1357 62.3683C59.7955 61.6951 57.6413 63.0811 54.6317 64.3245C53.4279 64.8314 48.1373 66.5659 55.0435 66.5659H93.4555C104.1 66.5659 94.2 64.6651 92.4972 63.9285H92.4101C87.3175 61.6634 80.5935 61.6634 78.3204 62.994Z" fill="#F5F5F5"/>
<path d="M102.959 93.328H144.935C148.61 93.328 144.777 90.9044 139.732 90.4213C134.687 89.9382 130.061 86.3742 123.464 85.3921C116.867 84.41 116.692 89.7481 108.028 89.6927C101.027 89.661 95.8311 93.328 102.959 93.328Z" fill="#F5F5F5"/>
<path d="M198 338.626C282.81 338.626 351.561 334.612 351.561 329.661C351.561 324.709 282.81 320.695 198 320.695C113.191 320.695 44.4395 324.709 44.4395 329.661C44.4395 334.612 113.191 338.626 198 338.626Z" fill="#F5F5F5"/>
<path d="M108.598 144.47C108.359 144.47 108.129 144.375 107.96 144.205C107.79 144.036 107.695 143.806 107.695 143.567V71.0513C107.695 70.8119 107.79 70.5822 107.96 70.4129C108.129 70.2436 108.359 70.1484 108.598 70.1484C108.838 70.1484 109.067 70.2436 109.237 70.4129C109.406 70.5822 109.501 70.8119 109.501 71.0513V143.567C109.501 143.806 109.406 144.036 109.237 144.205C109.067 144.375 108.838 144.47 108.598 144.47Z" fill="#007456"/>
<path d="M132.77 144.469C132.531 144.469 132.301 144.374 132.132 144.204C131.962 144.035 131.867 143.805 131.867 143.566V71.0503C131.855 70.9241 131.87 70.7968 131.91 70.6766C131.951 70.5564 132.015 70.4459 132.101 70.3522C132.186 70.2585 132.29 70.1836 132.406 70.1324C132.522 70.0811 132.647 70.0547 132.774 70.0547C132.901 70.0547 133.026 70.0811 133.142 70.1324C133.258 70.1836 133.362 70.2585 133.447 70.3522C133.533 70.4459 133.598 70.5564 133.638 70.6766C133.678 70.7968 133.693 70.9241 133.681 71.0503V143.566C133.679 143.806 133.582 144.036 133.411 144.205C133.241 144.374 133.01 144.469 132.77 144.469Z" fill="#007456"/>
<path d="M132.771 96.127C132.531 96.1278 132.301 96.0339 132.13 95.8657L120.685 84.4213L109.241 95.834C109.066 95.9801 108.844 96.0556 108.616 96.0455C108.389 96.0355 108.173 95.9406 108.012 95.7797C107.851 95.6187 107.756 95.4033 107.746 95.1759C107.736 94.9484 107.812 94.7255 107.958 94.5509L119.402 83.162L107.958 71.6938C107.82 71.5685 107.724 71.4039 107.683 71.2224C107.642 71.0408 107.657 70.8509 107.727 70.6783C107.797 70.5057 107.918 70.3586 108.074 70.257C108.23 70.1554 108.413 70.104 108.599 70.1098H132.771C132.951 70.1102 133.127 70.1638 133.276 70.2639C133.426 70.364 133.542 70.506 133.611 70.6721C133.68 70.8381 133.698 71.021 133.663 71.1974C133.628 71.3738 133.541 71.5356 133.413 71.6621L121.968 83.162L133.413 94.6064C133.555 94.7297 133.656 94.8945 133.7 95.0777C133.744 95.2608 133.729 95.4532 133.659 95.6278C133.588 95.8025 133.464 95.9506 133.305 96.0515C133.146 96.1523 132.959 96.2009 132.771 96.1904V96.127ZM110.785 71.9552L120.685 81.8552L130.585 71.9552H110.785Z" fill="#007456"/>
<path d="M108.599 71.9545C108.419 71.9557 108.243 71.9035 108.094 71.8043C107.944 71.7052 107.827 71.5637 107.759 71.398C107.69 71.2323 107.672 71.0497 107.707 70.8738C107.743 70.6978 107.829 70.5364 107.957 70.4101L120.043 58.3242C120.127 58.2394 120.227 58.1721 120.337 58.1262C120.447 58.0803 120.565 58.0566 120.684 58.0566C120.804 58.0566 120.922 58.0803 121.032 58.1262C121.142 58.1721 121.242 58.2394 121.326 58.3242L133.412 70.4101C133.497 70.4941 133.564 70.594 133.61 70.7041C133.656 70.8142 133.679 70.9323 133.679 71.0516C133.679 71.1709 133.656 71.2891 133.61 71.3992C133.564 71.5093 133.497 71.6092 133.412 71.6931C133.24 71.8605 133.01 71.9542 132.77 71.9542C132.531 71.9542 132.3 71.8605 132.129 71.6931L120.684 60.2487L109.24 71.6931C109.069 71.8614 108.838 71.9553 108.599 71.9545Z" fill="#007456"/>
<path d="M156.942 71.9545C156.703 71.9536 156.473 71.8599 156.301 71.6931L144.856 60.2487L133.412 71.6931C133.24 71.8605 133.01 71.9542 132.77 71.9542C132.531 71.9542 132.3 71.8605 132.129 71.6931C132.044 71.6092 131.977 71.5093 131.931 71.3992C131.885 71.2891 131.861 71.1709 131.861 71.0516C131.861 70.9323 131.885 70.8142 131.931 70.7041C131.977 70.594 132.044 70.4941 132.129 70.4101L144.215 58.3242C144.299 58.2394 144.399 58.1721 144.509 58.1262C144.619 58.0803 144.737 58.0566 144.856 58.0566C144.976 58.0566 145.094 58.0803 145.204 58.1262C145.314 58.1721 145.414 58.2394 145.498 58.3242L157.608 70.4101C157.735 70.5364 157.822 70.6978 157.857 70.8738C157.893 71.0497 157.875 71.2323 157.806 71.398C157.737 71.5637 157.62 71.7052 157.471 71.8043C157.321 71.9035 157.145 71.9557 156.966 71.9545H156.942Z" fill="#007456"/>
<path d="M156.942 71.9545C156.703 71.9536 156.473 71.8599 156.301 71.6931C156.216 71.6092 156.149 71.5093 156.103 71.3992C156.057 71.2891 156.033 71.1709 156.033 71.0516C156.033 70.9323 156.057 70.8142 156.103 70.7041C156.149 70.594 156.216 70.4941 156.301 70.4101L168.387 58.3242C168.471 58.2394 168.571 58.1721 168.681 58.1262C168.791 58.0803 168.909 58.0566 169.028 58.0566C169.147 58.0566 169.266 58.0803 169.376 58.1262C169.486 58.1721 169.586 58.2394 169.67 58.3242L181.756 70.4101C181.84 70.4941 181.908 70.594 181.954 70.7041C182 70.8142 182.023 70.9323 182.023 71.0516C182.023 71.1709 182 71.2891 181.954 71.3992C181.908 71.5093 181.84 71.6092 181.756 71.6931C181.584 71.8605 181.354 71.9542 181.114 71.9542C180.874 71.9542 180.644 71.8605 180.473 71.6931L169.028 60.2487L157.608 71.6931C157.52 71.7793 157.416 71.8469 157.302 71.8918C157.187 71.9367 157.065 71.9581 156.942 71.9545Z" fill="#007456"/>
<path d="M108.599 120.298C108.419 120.299 108.243 120.247 108.094 120.148C107.944 120.049 107.827 119.907 107.759 119.741C107.69 119.576 107.672 119.393 107.707 119.217C107.743 119.041 107.829 118.88 107.957 118.753L132.129 94.5816C132.303 94.4354 132.526 94.36 132.754 94.37C132.981 94.3801 133.197 94.4749 133.358 94.6359C133.519 94.7969 133.613 95.0123 133.623 95.2397C133.634 95.4671 133.558 95.6901 133.412 95.8646L109.24 120.036C109.069 120.205 108.838 120.299 108.599 120.298Z" fill="#007456"/>
<path d="M132.77 120.298C132.53 120.299 132.299 120.205 132.128 120.037L107.957 95.8334C107.81 95.6588 107.735 95.4359 107.745 95.2085C107.755 94.981 107.85 94.7656 108.011 94.6047C108.172 94.4437 108.387 94.3488 108.615 94.3388C108.842 94.3287 109.065 94.4042 109.24 94.5503L133.411 118.722C133.539 118.848 133.626 119.01 133.661 119.186C133.697 119.362 133.679 119.544 133.61 119.71C133.541 119.876 133.424 120.017 133.275 120.116C133.125 120.216 132.949 120.268 132.77 120.267V120.298Z" fill="#007456"/>
<path d="M132.77 144.47H108.598C108.419 144.471 108.243 144.419 108.094 144.32C107.944 144.222 107.828 144.081 107.758 143.915C107.691 143.749 107.674 143.567 107.709 143.391C107.744 143.215 107.83 143.053 107.956 142.925L119.401 131.473L107.956 120.029C107.81 119.854 107.735 119.631 107.745 119.404C107.755 119.176 107.85 118.961 108.011 118.8C108.172 118.639 108.387 118.544 108.615 118.534C108.842 118.524 109.065 118.6 109.239 118.746L120.684 130.19L132.128 118.746C132.303 118.6 132.526 118.524 132.753 118.534C132.981 118.544 133.196 118.639 133.357 118.8C133.518 118.961 133.613 119.176 133.623 119.404C133.633 119.631 133.557 119.854 133.411 120.029L121.967 131.473L133.411 142.917C133.539 143.044 133.626 143.205 133.661 143.381C133.697 143.557 133.679 143.74 133.61 143.905C133.541 144.071 133.424 144.213 133.275 144.312C133.125 144.411 132.949 144.463 132.77 144.462V144.47ZM110.784 142.664H130.584L120.684 132.764L110.784 142.664Z" fill="#263238"/>
<path d="M100.14 84.1029H87.2305L88.8541 71.0508H98.5085L100.14 84.1029Z" fill="#007456"/>
<path d="M100.14 85.0064H87.2304C87.1022 85.006 86.9755 84.9791 86.8583 84.9273C86.741 84.8755 86.6358 84.7999 86.5493 84.7054C86.4657 84.6079 86.4029 84.4945 86.3648 84.3719C86.3267 84.2493 86.314 84.1203 86.3275 83.9926L87.959 70.9404C87.9861 70.722 88.0919 70.521 88.2567 70.3752C88.4215 70.2293 88.6339 70.1487 88.854 70.1484H98.5085C98.7294 70.1485 98.9428 70.2288 99.1089 70.3745C99.2751 70.5202 99.3825 70.7214 99.4113 70.9404L100.995 83.9926C101.011 84.1195 101 84.2482 100.962 84.3704C100.924 84.4925 100.861 84.6052 100.776 84.701C100.692 84.7969 100.588 84.8736 100.471 84.9263C100.355 84.9789 100.228 85.0062 100.1 85.0064H100.14ZM88.26 83.1927H99.1104L97.7086 71.9542H89.6618L88.26 83.1927Z" fill="#007456"/>
<path d="M181.114 71.9544H85.187C85.0608 71.9662 84.9336 71.9515 84.8133 71.9113C84.6931 71.8711 84.5826 71.8062 84.4889 71.7209C84.3952 71.6355 84.3203 71.5315 84.2691 71.4156C84.2179 71.2996 84.1914 71.1743 84.1914 71.0475C84.1914 70.9208 84.2179 70.7954 84.2691 70.6794C84.3203 70.5635 84.3952 70.4595 84.4889 70.3742C84.5826 70.2888 84.6931 70.2239 84.8133 70.1837C84.9336 70.1435 85.0608 70.1289 85.187 70.1407H181.114C181.24 70.1289 181.368 70.1435 181.488 70.1837C181.608 70.2239 181.719 70.2888 181.812 70.3742C181.906 70.4595 181.981 70.5635 182.032 70.6794C182.083 70.7954 182.11 70.9208 182.11 71.0475C182.11 71.1743 182.083 71.2996 182.032 71.4156C181.981 71.5315 181.906 71.6355 181.812 71.7209C181.719 71.8062 181.608 71.8711 181.488 71.9113C181.368 71.9515 181.24 71.9662 181.114 71.9544Z" fill="#263238"/>
<path d="M169.029 59.8684H120.717C120.491 59.8473 120.281 59.7426 120.128 59.5749C119.975 59.4072 119.891 59.1885 119.891 58.9616C119.891 58.7347 119.975 58.516 120.128 58.3483C120.281 58.1805 120.491 58.0759 120.717 58.0547H169.029C169.155 58.0429 169.282 58.0576 169.402 58.0978C169.523 58.138 169.633 58.2029 169.727 58.2882C169.82 58.3736 169.895 58.4776 169.947 58.5935C169.998 58.7095 170.024 58.8348 170.024 58.9616C170.024 59.0883 169.998 59.2137 169.947 59.3297C169.895 59.4456 169.82 59.5496 169.727 59.6349C169.633 59.7203 169.523 59.7852 169.402 59.8254C169.282 59.8656 169.155 59.8802 169.029 59.8684Z" fill="#007456"/>
<path d="M193.81 111.633H100.615C95.6857 111.633 91.6895 115.629 91.6895 120.559V317.062C91.6895 321.991 95.6857 325.988 100.615 325.988H193.81C198.74 325.988 202.736 321.991 202.736 317.062V120.559C202.736 115.629 198.74 111.633 193.81 111.633Z" fill="#007456"/>
<path opacity="0.2" d="M193.81 111.633H100.615C95.6857 111.633 91.6895 115.629 91.6895 120.559V317.062C91.6895 321.991 95.6857 325.988 100.615 325.988H193.81C198.74 325.988 202.736 321.991 202.736 317.062V120.559C202.736 115.629 198.74 111.633 193.81 111.633Z" fill="black"/>
<path d="M205.214 111.633H112.02C107.09 111.633 103.094 115.629 103.094 120.559V317.062C103.094 321.991 107.09 325.988 112.02 325.988H205.214C210.144 325.988 214.14 321.991 214.14 317.062V120.559C214.14 115.629 210.144 111.633 205.214 111.633Z" fill="#007456"/>
<path d="M210.418 317.062V120.551C210.418 117.677 208.088 115.348 205.215 115.348H112.012C109.138 115.348 106.809 117.677 106.809 120.551L106.809 317.062C106.809 319.936 109.138 322.266 112.012 322.266H205.215C208.088 322.266 210.418 319.936 210.418 317.062Z" fill="white"/>
<path opacity="0.1" d="M208.933 234.636L204.664 146.732C204.492 143.176 201.469 140.433 197.912 140.606L121.827 144.3C118.271 144.473 115.528 147.496 115.701 151.052L119.969 238.956C120.142 242.512 123.165 245.255 126.721 245.082L202.806 241.388C206.362 241.215 209.105 238.192 208.933 234.636Z" fill="black"/>
<path d="M207.447 125.518V121.795C207.447 119.879 205.894 118.326 203.978 118.326H113.255C111.339 118.326 109.786 119.879 109.786 121.795V125.518C109.786 127.433 111.339 128.986 113.255 128.986H203.978C205.894 128.986 207.447 127.433 207.447 125.518Z" fill="#007456"/>
<path d="M120.114 126.152C119.452 126.152 118.816 125.889 118.347 125.422C117.878 124.954 117.613 124.319 117.611 123.657C117.613 122.994 117.878 122.359 118.347 121.89C118.816 121.421 119.451 121.156 120.114 121.154C120.777 121.156 121.413 121.421 121.881 121.89C122.35 122.359 122.615 122.994 122.617 123.657C122.615 124.319 122.35 124.954 121.881 125.422C121.412 125.889 120.776 126.152 120.114 126.152Z" fill="white"/>
<path d="M127.552 126.15C126.889 126.15 126.254 125.887 125.785 125.42C125.316 124.952 125.051 124.317 125.049 123.655C125.051 122.992 125.315 122.357 125.784 121.888C126.253 121.419 126.888 121.154 127.552 121.152C128.214 121.154 128.848 121.419 129.316 121.888C129.784 122.357 130.046 122.993 130.046 123.655C130.044 124.316 129.781 124.949 129.313 125.417C128.846 125.884 128.213 126.148 127.552 126.15Z" fill="white"/>
<path d="M134.987 126.15C134.325 126.15 133.689 125.887 133.22 125.42C132.751 124.952 132.486 124.317 132.484 123.655C132.486 122.992 132.751 122.357 133.22 121.888C133.689 121.419 134.324 121.154 134.987 121.152C135.649 121.154 136.284 121.419 136.752 121.888C137.219 122.357 137.482 122.993 137.482 123.655C137.48 124.316 137.216 124.949 136.749 125.417C136.281 125.884 135.648 126.148 134.987 126.15Z" fill="white"/>
<path d="M200.486 120.551H197.017C196.264 120.551 195.654 121.161 195.654 121.913V125.382C195.654 126.134 196.264 126.744 197.017 126.744H200.486C201.238 126.744 201.848 126.134 201.848 125.382V121.913C201.848 121.161 201.238 120.551 200.486 120.551Z" fill="white"/>
<path d="M140.805 280.126C149.659 276.459 153.864 266.308 150.196 257.454C146.529 248.6 136.378 244.395 127.524 248.063C118.67 251.73 114.465 261.881 118.133 270.735C121.8 279.589 131.951 283.794 140.805 280.126Z" fill="#007456"/>
<path d="M196.106 256.205H162.272C161.697 256.203 161.146 255.974 160.739 255.567C160.333 255.161 160.104 254.61 160.102 254.035C160.104 253.46 160.333 252.91 160.739 252.503C161.146 252.097 161.697 251.867 162.272 251.865H196.106C196.681 251.865 197.233 252.094 197.64 252.501C198.047 252.908 198.276 253.46 198.276 254.035C198.276 254.611 198.047 255.163 197.64 255.57C197.233 255.977 196.681 256.205 196.106 256.205Z" fill="#007456"/>
<path d="M196.106 266.264H162.272C161.697 266.262 161.146 266.033 160.739 265.626C160.333 265.22 160.104 264.669 160.102 264.094C160.104 263.519 160.333 262.968 160.739 262.562C161.146 262.155 161.697 261.926 162.272 261.924H196.106C196.681 261.924 197.233 262.152 197.64 262.559C198.047 262.966 198.276 263.518 198.276 264.094C198.276 264.669 198.047 265.221 197.64 265.628C197.233 266.035 196.681 266.264 196.106 266.264Z" fill="#007456"/>
<path d="M196.106 271.98H162.272C161.073 271.98 160.102 272.952 160.102 274.151C160.102 275.349 161.073 276.321 162.272 276.321H196.106C197.304 276.321 198.276 275.349 198.276 274.151C198.276 272.952 197.304 271.98 196.106 271.98Z" fill="#007456"/>
<path d="M192.654 291.188H124.59C120.295 291.188 116.812 294.67 116.812 298.965V308.635C116.812 312.931 120.295 316.413 124.59 316.413H192.654C196.95 316.413 200.432 312.931 200.432 308.635V298.965C200.432 294.67 196.95 291.188 192.654 291.188Z" fill="#E0E0E0"/>
<path d="M218.304 228.273L211.46 140.533C211.183 136.983 208.081 134.33 204.532 134.607L128.588 140.53C125.038 140.807 122.385 143.909 122.662 147.459L129.505 235.2C129.782 238.749 132.884 241.403 136.434 241.126L212.378 235.202C215.928 234.925 218.581 231.823 218.304 228.273Z" fill="white"/>
<path d="M135.914 241.561C134.189 241.558 132.529 240.903 131.266 239.728C130.003 238.554 129.231 236.945 129.103 235.225L122.26 147.479C122.122 145.671 122.707 143.883 123.886 142.505C125.064 141.127 126.741 140.273 128.549 140.13L204.501 134.205C206.309 134.068 208.098 134.652 209.476 135.831C210.853 137.01 211.708 138.686 211.851 140.494L218.694 228.24C218.834 230.049 218.25 231.84 217.071 233.219C215.892 234.598 214.214 235.454 212.405 235.597L136.453 241.513C136.271 241.561 136.096 241.561 135.914 241.561ZM129.895 235.225C130.024 236.82 130.78 238.299 131.997 239.338C133.215 240.377 134.794 240.892 136.389 240.769L212.342 234.845C213.938 234.713 215.417 233.956 216.456 232.737C217.494 231.519 218.009 229.939 217.886 228.342L211.043 140.597C210.914 139 210.157 137.52 208.938 136.481C207.719 135.442 206.138 134.928 204.541 135.053L128.596 140.977C127 141.108 125.521 141.866 124.483 143.084C123.444 144.303 122.929 145.883 123.052 147.479L129.895 235.225Z" fill="#007456"/>
<path d="M215.003 226.72L213.486 207.272C213.267 204.468 210.817 202.373 208.013 202.591L135.685 208.233C132.881 208.452 130.785 210.902 131.004 213.706L132.521 233.154C132.74 235.958 135.19 238.054 137.994 237.835L210.322 232.193C213.126 231.975 215.221 229.524 215.003 226.72Z" fill="#007456"/>
<path opacity="0.2" d="M172.098 197.231L168.086 145.797C167.865 142.958 165.384 140.836 162.545 141.057L130.709 143.54C127.87 143.762 125.748 146.243 125.969 149.082L129.981 200.516C130.202 203.355 132.683 205.477 135.522 205.256L167.359 202.772C170.198 202.551 172.32 200.07 172.098 197.231Z" fill="#007456"/>
<path opacity="0.2" d="M208.784 150.384L208.103 141.659C207.925 139.378 205.932 137.674 203.652 137.851L176.371 139.979C174.09 140.157 172.385 142.15 172.563 144.431L173.244 153.156C173.422 155.437 175.415 157.142 177.696 156.964L204.976 154.836C207.257 154.658 208.962 152.665 208.784 150.384Z" fill="#007456"/>
<path opacity="0.4" d="M210.524 172.749L209.844 164.024C209.666 161.743 207.673 160.039 205.392 160.217L178.111 162.345C175.83 162.522 174.126 164.516 174.304 166.796L174.984 175.521C175.162 177.802 177.155 179.507 179.436 179.329L206.717 177.201C208.997 177.023 210.702 175.03 210.524 172.749Z" fill="#007456"/>
<path opacity="0.6" d="M212.27 195.116L211.59 186.391C211.412 184.111 209.419 182.406 207.138 182.584L179.857 184.712C177.576 184.89 175.872 186.883 176.05 189.163L176.73 197.889C176.908 200.169 178.901 201.874 181.182 201.696L208.463 199.568C210.743 199.39 212.448 197.397 212.27 195.116Z" fill="#007456"/>
<path d="M179.189 124.06C179.082 124.06 178.979 124.018 178.904 123.942C178.828 123.866 178.785 123.764 178.785 123.657V71.0519C178.773 70.9933 178.775 70.9327 178.789 70.8747C178.804 70.8167 178.831 70.7626 178.869 70.7163C178.907 70.6701 178.954 70.6328 179.008 70.6072C179.062 70.5816 179.121 70.5684 179.181 70.5684C179.241 70.5684 179.3 70.5816 179.354 70.6072C179.408 70.6328 179.456 70.6701 179.494 70.7163C179.532 70.7626 179.559 70.8167 179.573 70.8747C179.588 70.9327 179.589 70.9933 179.577 71.0519V123.657C179.577 123.761 179.537 123.861 179.465 123.937C179.392 124.012 179.294 124.056 179.189 124.06Z" fill="#263238"/>
<path d="M184.22 132.265H174.161C173.761 132.265 173.371 132.135 173.05 131.895C172.729 131.656 172.494 131.319 172.379 130.935L170.217 123.585C170.138 123.308 170.123 123.017 170.175 122.734C170.227 122.451 170.344 122.184 170.517 121.953C170.689 121.723 170.913 121.536 171.17 121.407C171.428 121.278 171.711 121.21 171.999 121.209H186.382C186.67 121.21 186.953 121.278 187.211 121.407C187.468 121.536 187.692 121.723 187.864 121.953C188.037 122.184 188.154 122.451 188.206 122.734C188.258 123.017 188.243 123.308 188.164 123.585L186.002 130.935C185.889 131.319 185.654 131.657 185.332 131.897C185.011 132.137 184.621 132.266 184.22 132.265Z" fill="#263238"/>
<path d="M179.19 143.654C178.951 143.654 178.721 143.559 178.552 143.39C178.382 143.221 178.287 142.991 178.287 142.751C178.287 142.512 178.382 142.282 178.552 142.113C178.721 141.944 178.951 141.849 179.19 141.849C180.03 141.849 180.836 141.515 181.43 140.921C182.024 140.327 182.358 139.521 182.358 138.681C182.358 137.84 182.024 137.035 181.43 136.44C180.836 135.846 180.03 135.513 179.19 135.513C178.951 135.513 178.721 135.417 178.552 135.248C178.382 135.079 178.287 134.849 178.287 134.61V132.265C178.308 132.04 178.413 131.83 178.581 131.677C178.748 131.524 178.967 131.439 179.194 131.439C179.421 131.439 179.64 131.524 179.807 131.677C179.975 131.83 180.08 132.04 180.101 132.265V133.778C181.316 134.009 182.402 134.684 183.147 135.672C183.891 136.66 184.241 137.89 184.127 139.122C184.013 140.354 183.444 141.5 182.531 142.335C181.618 143.17 180.427 143.635 179.19 143.639V143.654Z" fill="#263238"/>
<path d="M318.954 155.685C319.959 158.006 320.783 160.207 321.591 162.52C322.399 164.833 323.135 167.114 323.761 169.49C324.446 171.915 324.996 174.377 325.408 176.863C325.642 178.192 325.806 179.532 325.899 180.879C326.02 182.462 325.98 184.055 325.781 185.631L325.733 185.955C325.711 186.111 325.677 186.264 325.63 186.415C324.918 188.581 324.063 190.697 323.072 192.751C322.145 194.739 321.092 196.616 320.047 198.477C319.001 200.338 317.861 202.12 316.681 203.886C315.5 205.652 314.304 207.363 312.958 209.066C312.509 209.627 311.877 210.013 311.172 210.156C310.468 210.299 309.735 210.191 309.102 209.85C308.469 209.509 307.976 208.957 307.708 208.29C307.44 207.623 307.415 206.883 307.636 206.199V206.128C308.269 204.219 308.974 202.27 309.648 200.354C310.321 198.437 311.018 196.536 311.659 194.636C312.301 192.735 312.942 190.842 313.512 188.997C314.083 187.151 314.582 185.298 314.93 183.611L314.78 184.403C314.763 183.64 314.686 182.88 314.55 182.13C314.392 181.219 314.194 180.221 313.94 179.215C313.687 178.209 313.41 177.18 313.101 176.142C312.792 175.105 312.475 174.059 312.127 172.974C311.43 170.876 310.709 168.753 309.941 166.638L307.62 160.358L307.58 160.247C306.977 158.742 306.995 157.059 307.632 155.567C308.27 154.076 309.473 152.899 310.978 152.295C312.483 151.691 314.166 151.71 315.658 152.347C317.149 152.984 318.326 154.188 318.93 155.693L318.954 155.685Z" fill="#007456"/>
<path opacity="0.7" d="M318.954 155.685C319.959 158.006 320.783 160.207 321.591 162.52C322.399 164.833 323.135 167.114 323.761 169.49C324.446 171.915 324.996 174.377 325.408 176.863C325.642 178.192 325.806 179.532 325.899 180.879C326.02 182.462 325.98 184.055 325.781 185.631L325.733 185.955C325.711 186.111 325.677 186.264 325.63 186.415C324.918 188.581 324.063 190.697 323.072 192.751C322.145 194.739 321.092 196.616 320.047 198.477C319.001 200.338 317.861 202.12 316.681 203.886C315.5 205.652 314.304 207.363 312.958 209.066C312.509 209.627 311.877 210.013 311.172 210.156C310.468 210.299 309.735 210.191 309.102 209.85C308.469 209.509 307.976 208.957 307.708 208.29C307.44 207.623 307.415 206.883 307.636 206.199V206.128C308.269 204.219 308.974 202.27 309.648 200.354C310.321 198.437 311.018 196.536 311.659 194.636C312.301 192.735 312.942 190.842 313.512 188.997C314.083 187.151 314.582 185.298 314.93 183.611L314.78 184.403C314.763 183.64 314.686 182.88 314.55 182.13C314.392 181.219 314.194 180.221 313.94 179.215C313.687 178.209 313.41 177.18 313.101 176.142C312.792 175.105 312.475 174.059 312.127 172.974C311.43 170.876 310.709 168.753 309.941 166.638L307.62 160.358L307.58 160.247C306.977 158.742 306.995 157.059 307.632 155.567C308.27 154.076 309.473 152.899 310.978 152.295C312.483 151.691 314.166 151.71 315.658 152.347C317.149 152.984 318.326 154.188 318.93 155.693L318.954 155.685Z" fill="white"/>
<path d="M308 205.127L303.953 207.25L309.616 213.135C310.701 212.36 311.669 211.435 312.491 210.386C313.047 209.635 313.284 208.694 313.151 207.769C313.017 206.843 312.524 206.008 311.778 205.444C311.243 205.04 310.604 204.795 309.935 204.739C309.266 204.683 308.595 204.818 308 205.127Z" fill="#7F3E3B"/>
<path d="M301.752 213.99L304.089 215.716C304.539 216.047 305.092 216.209 305.65 216.173C306.207 216.136 306.734 215.905 307.138 215.518L309.585 213.142L303.923 207.258L301.325 210.671C300.944 211.169 300.775 211.797 300.855 212.419C300.936 213.04 301.258 213.605 301.752 213.99Z" fill="#7F3E3B"/>
<path d="M243.493 167.612L239.319 162.227L234.527 168.84C234.527 168.84 238.899 173.251 241.616 171.311L243.493 167.612Z" fill="#7F3E3B"/>
<path d="M232.31 161.284L231.019 163.882C230.772 164.385 230.711 164.958 230.845 165.501C230.98 166.045 231.302 166.523 231.755 166.852L234.527 168.84L239.319 162.227L235.517 160.239C235.238 160.096 234.934 160.009 234.621 159.984C234.308 159.959 233.994 159.996 233.696 160.094C233.398 160.191 233.122 160.346 232.884 160.55C232.646 160.755 232.451 161.004 232.31 161.284Z" fill="#7F3E3B"/>
<path d="M312.73 330.374H307.709L307.091 329.796L306.164 330.374C303.099 330.374 298.965 330.263 296.993 329.582C296.936 329.352 296.943 329.11 297.015 328.884C297.086 328.658 297.218 328.455 297.397 328.299C297.397 328.299 305.515 325.789 306.244 324.102H312.397" fill="#263238"/>
<path d="M306.505 259.373C305.499 233.411 307.138 212.891 304.675 202.935L281.707 199.221C281.707 199.221 285.936 243.2 291.021 261.393C296.106 279.585 305.277 324.515 305.277 324.515H313.094C313.094 324.515 313.284 280.678 306.505 259.373Z" fill="#007456"/>
<path opacity="0.2" d="M289.872 220.969L285.604 232.057C286.966 241.759 288.597 251.683 290.356 258.811C292.248 245.869 290.878 224.644 289.872 220.969Z" fill="black"/>
<path d="M247.675 322.931C247.675 322.931 259.23 323.81 260.498 322.416L266.556 324.277L264.862 330.376L261.123 329.235L260.704 328.499L259.611 328.768C256.585 327.841 248.586 325.267 246.859 324.016C246.884 323.778 246.973 323.551 247.116 323.36C247.26 323.169 247.453 323.02 247.675 322.931Z" fill="#263238"/>
<path d="M282.214 260.949C289.939 242.002 295.055 222.094 297.421 201.771L272.346 197.668C272.346 197.668 268.624 243.026 267 261.67C265.321 281.05 258.803 322.345 258.803 322.345L266.905 324.8C266.905 324.8 281.375 285.057 282.214 260.949Z" fill="#007456"/>
<path d="M306.782 131.512C305.309 136.264 304.406 143.146 305.831 147.035C303.059 148.952 298.703 151.185 293.421 150.338C288.138 149.49 289.643 146.061 291.322 144.429C295.385 143.075 295.813 141.166 295.139 139.337L306.782 131.512Z" fill="#7F3E3B"/>
<path d="M310.583 148.936C309.35 147.454 308.005 146.069 306.56 144.794C305.324 143.938 295.068 142.663 292.62 142.75C290.173 142.837 286.775 145.966 286.775 145.966L310.583 148.936Z" fill="#007456"/>
<path opacity="0.7" d="M310.583 148.936C309.35 147.454 308.005 146.069 306.56 144.794C305.324 143.938 295.068 142.663 292.62 142.75C290.173 142.837 286.775 145.966 286.775 145.966L310.583 148.936Z" fill="white"/>
<path d="M293.041 125.834C292.883 126.302 292.51 126.626 292.209 126.5C291.908 126.373 291.774 125.929 291.932 125.454C292.091 124.979 292.463 124.662 292.764 124.797C293.065 124.931 293.199 125.367 293.041 125.834Z" fill="#263238"/>
<path d="M292.859 126.5C291.829 127.743 290.632 128.839 289.303 129.755C289.546 130.092 289.86 130.372 290.222 130.576C290.585 130.78 290.987 130.902 291.402 130.935L292.859 126.5Z" fill="#630F0F"/>
<path d="M293.04 122.594C293.059 122.638 293.09 122.677 293.129 122.704C293.168 122.732 293.214 122.749 293.262 122.752C293.624 122.789 293.971 122.911 294.277 123.108C294.583 123.305 294.837 123.571 295.02 123.885C295.036 123.92 295.058 123.951 295.085 123.976C295.113 124.002 295.146 124.022 295.181 124.034C295.217 124.047 295.255 124.052 295.292 124.05C295.33 124.047 295.367 124.037 295.4 124.02C295.469 123.986 295.522 123.926 295.547 123.853C295.572 123.781 295.568 123.701 295.535 123.632C295.312 123.23 294.996 122.887 294.612 122.634C294.229 122.38 293.79 122.222 293.333 122.174C293.282 122.171 293.231 122.182 293.185 122.204C293.139 122.227 293.099 122.26 293.07 122.303C293.04 122.345 293.022 122.393 293.017 122.444C293.012 122.495 293.02 122.547 293.04 122.594Z" fill="#263238"/>
<path d="M309.3 129.834C307.043 135.473 306.013 138.894 302.172 140.866C296.335 143.836 290.102 138.783 290.625 132.566C291.092 126.975 294.695 118.69 301.079 118.31C302.49 118.231 303.898 118.51 305.172 119.121C306.446 119.732 307.544 120.656 308.365 121.807C309.186 122.957 309.702 124.296 309.865 125.7C310.029 127.103 309.834 128.526 309.3 129.834Z" fill="#7F3E3B"/>
<path d="M296.62 130.014C296.466 131.291 296.581 132.587 296.959 133.817C297.337 135.047 297.969 136.184 298.814 137.155C299.659 138.125 300.699 138.907 301.865 139.451C303.031 139.994 304.299 140.287 305.586 140.31C311.256 140.31 311.343 132.231 310.338 130.37C313.347 129.847 315.09 125.713 313.252 123.1C316.016 120.93 309.625 117.635 301.847 117.207C293.27 116.732 294.838 121.785 297.697 123.313C294.949 124.129 294.664 129.024 296.62 130.014Z" fill="#263238"/>
<path d="M294.973 119.372C294.973 119.372 295.519 126.017 301.103 130.016C306.686 134.016 311.652 134.388 311.652 134.388L313.03 130.016C313.03 130.016 300.422 122.421 296.161 118.176C295.741 118.55 295.345 118.95 294.973 119.372Z" fill="#007456"/>
<path opacity="0.6" d="M294.973 119.372C294.973 119.372 295.519 126.017 301.103 130.016C306.686 134.016 311.652 134.388 311.652 134.388L313.03 130.016C313.03 130.016 300.422 122.421 296.161 118.176C295.741 118.55 295.345 118.95 294.973 119.372Z" fill="white"/>
<path d="M299.583 130.096C298.854 131.168 297.744 131.922 296.478 132.202C294.894 132.511 294.387 130.896 295.092 129.335C295.726 127.933 297.326 126.08 298.807 126.476C300.288 126.872 300.533 128.733 299.583 130.096Z" fill="#7F3E3B"/>
<path d="M310.338 148.224C302.308 146.015 290.689 144.415 282.785 144.629C280.83 144.689 278.95 145.397 277.44 146.641C275.931 147.885 274.877 149.595 274.445 151.503C271.768 163.114 271.356 184.038 270.58 205.05C287.814 213.762 307.115 210.309 307.115 210.309C308.137 206.199 307.907 192.204 307.551 184.696C309.689 177.314 313.562 169.07 316.5 159.281C316.835 158.15 316.94 156.964 316.811 155.792C316.681 154.621 316.318 153.486 315.744 152.457C315.17 151.427 314.397 150.522 313.468 149.795C312.54 149.068 311.476 148.534 310.338 148.224Z" fill="#007456"/>
<path opacity="0.7" d="M310.338 148.224C302.308 146.015 290.689 144.415 282.785 144.629C280.83 144.689 278.95 145.397 277.44 146.641C275.931 147.885 274.877 149.595 274.445 151.503C271.768 163.114 271.356 184.038 270.58 205.05C287.814 213.762 307.115 210.309 307.115 210.309C308.137 206.199 307.907 192.204 307.551 184.696C309.689 177.314 313.562 169.07 316.5 159.281C316.835 158.15 316.94 156.964 316.811 155.792C316.681 154.621 316.318 153.486 315.744 152.457C315.17 151.427 314.397 150.522 313.468 149.795C312.54 149.068 311.476 148.534 310.338 148.224Z" fill="white"/>
<path d="M285.009 143.463C278.388 143.083 274.269 146.354 272.582 156.349C270.895 166.344 269.074 189.003 269.779 197.176C292.01 206.53 305.799 202.72 308.769 200.542C309.933 198.76 309.505 193.224 308.919 191.038C310.407 187.113 311.151 182.944 311.113 178.746C314.408 175.578 315.865 169.504 315.976 167.144C318.875 163.279 319.263 154.527 317.655 152.032C316.047 149.538 311.375 144.936 285.009 143.463Z" fill="#263238"/>
<path opacity="0.2" d="M272.97 198.849C272.865 198.849 272.764 198.807 272.69 198.733C272.616 198.658 272.574 198.558 272.574 198.453C272.574 182.391 274.721 158.702 277.738 150.394C277.774 150.295 277.847 150.215 277.942 150.17C278.037 150.126 278.146 150.121 278.245 150.156C278.294 150.173 278.34 150.2 278.379 150.235C278.418 150.269 278.45 150.312 278.472 150.359C278.494 150.407 278.506 150.458 278.508 150.51C278.51 150.562 278.501 150.614 278.483 150.663C275.782 158.1 273.382 180.435 273.366 198.453C273.366 198.505 273.356 198.556 273.336 198.604C273.316 198.652 273.287 198.696 273.25 198.733C273.213 198.769 273.17 198.798 273.122 198.818C273.074 198.838 273.022 198.849 272.97 198.849Z" fill="white"/>
<path d="M284.898 154.44C283.695 156.634 282.475 158.59 281.16 160.61C279.846 162.629 278.467 164.57 276.963 166.486C275.449 168.47 273.82 170.364 272.084 172.157C271.151 173.13 270.162 174.048 269.122 174.905C267.907 175.933 266.579 176.818 265.162 177.543L264.877 177.685C264.734 177.755 264.585 177.813 264.433 177.859C262.056 178.559 259.567 178.801 257.099 178.572C255.996 178.487 254.901 178.325 253.82 178.089C252.786 177.877 251.763 177.613 250.755 177.297C248.824 176.677 246.944 175.906 245.132 174.992C244.237 174.541 243.374 174.058 242.519 173.551C241.663 173.044 240.871 172.521 239.976 171.872C239.402 171.459 238.989 170.859 238.808 170.176C238.626 169.492 238.687 168.767 238.98 168.123C239.274 167.479 239.781 166.957 240.416 166.646C241.051 166.334 241.775 166.253 242.463 166.415L242.732 166.478L245.211 167.056C246.051 167.254 246.898 167.429 247.738 167.587C249.372 167.909 251.021 168.147 252.68 168.3C254.195 168.438 255.719 168.438 257.234 168.3C258.442 168.209 259.627 167.912 260.735 167.421L260.006 167.746C260.572 167.329 261.102 166.866 261.59 166.36C262.2 165.734 262.857 165.021 263.491 164.261C264.124 163.5 264.758 162.677 265.376 161.845C265.993 161.014 266.635 160.15 267.245 159.263C268.457 157.505 269.668 155.691 270.848 153.846C272.028 152.001 273.224 150.092 274.317 148.302L274.373 148.207C274.782 147.516 275.323 146.912 275.966 146.43C276.609 145.948 277.34 145.598 278.118 145.398C278.896 145.199 279.706 145.155 280.501 145.269C281.296 145.382 282.061 145.651 282.752 146.061C283.443 146.47 284.047 147.011 284.529 147.654C285.011 148.296 285.361 149.028 285.561 149.806C285.76 150.584 285.804 151.394 285.691 152.189C285.577 152.984 285.308 153.749 284.898 154.44Z" fill="#007456"/>
<path opacity="0.7" d="M284.898 154.44C283.695 156.634 282.475 158.59 281.16 160.61C279.846 162.629 278.467 164.57 276.963 166.486C275.449 168.47 273.82 170.364 272.084 172.157C271.151 173.13 270.162 174.048 269.122 174.905C267.907 175.933 266.579 176.818 265.162 177.543L264.877 177.685C264.734 177.755 264.585 177.813 264.433 177.859C262.056 178.559 259.567 178.801 257.099 178.572C255.996 178.487 254.901 178.325 253.82 178.089C252.786 177.877 251.763 177.613 250.755 177.297C248.824 176.677 246.944 175.906 245.132 174.992C244.237 174.541 243.374 174.058 242.519 173.551C241.663 173.044 240.871 172.521 239.976 171.872C239.402 171.459 238.989 170.859 238.808 170.176C238.626 169.492 238.687 168.767 238.98 168.123C239.274 167.479 239.781 166.957 240.416 166.646C241.051 166.334 241.775 166.253 242.463 166.415L242.732 166.478L245.211 167.056C246.051 167.254 246.898 167.429 247.738 167.587C249.372 167.909 251.021 168.147 252.68 168.3C254.195 168.438 255.719 168.438 257.234 168.3C258.442 168.209 259.627 167.912 260.735 167.421L260.006 167.746C260.572 167.329 261.102 166.866 261.59 166.36C262.2 165.734 262.857 165.021 263.491 164.261C264.124 163.5 264.758 162.677 265.376 161.845C265.993 161.014 266.635 160.15 267.245 159.263C268.457 157.505 269.668 155.691 270.848 153.846C272.028 152.001 273.224 150.092 274.317 148.302L274.373 148.207C274.782 147.516 275.323 146.912 275.966 146.43C276.609 145.948 277.34 145.598 278.118 145.398C278.896 145.199 279.706 145.155 280.501 145.269C281.296 145.382 282.061 145.651 282.752 146.061C283.443 146.47 284.047 147.011 284.529 147.654C285.011 148.296 285.361 149.028 285.561 149.806C285.76 150.584 285.804 151.394 285.691 152.189C285.577 152.984 285.308 153.749 284.898 154.44Z" fill="white"/>
<path d="M313.141 132.795C313.038 132.896 312.91 132.966 312.771 133C312.631 133.033 312.486 133.028 312.349 132.985C307.896 131.284 303.798 128.77 300.263 125.572C294.267 120.076 293.752 113.779 296.414 116.789C297.887 115.205 304.144 113.272 309.941 115.783C316.071 118.452 319.025 126.721 313.141 132.795Z" fill="#007456"/>
<path d="M308.018 115.117C309.526 116.548 310.606 118.371 311.137 120.381C311.669 122.39 311.631 124.509 311.027 126.498C312.317 126.218 313.556 125.743 314.702 125.088C314.702 125.088 315.629 120.645 313.91 117.786C312.191 114.927 308.39 114.206 308.018 115.117Z" fill="#007456"/>
<path opacity="0.2" d="M311.027 126.499C311.631 124.509 311.669 122.391 311.137 120.381C310.606 118.371 309.526 116.549 308.018 115.118C308.068 115.029 308.139 114.953 308.224 114.896C308.31 114.84 308.407 114.805 308.509 114.793C309.712 115.569 313.031 120.282 311.027 126.499Z" fill="black"/>
</svg>
