<svg width="14" height="14" viewBox="0 0 14 14" fill="none" xmlns="http://www.w3.org/2000/svg">
<path fill-rule="evenodd" clip-rule="evenodd" d="M6.99998 0.333008C5.68144 0.333008 4.39251 0.724001 3.29618 1.45654C2.19985 2.18909 1.34537 3.23028 0.840786 4.44845C0.336202 5.66663 0.204179 7.00707 0.461414 8.30028C0.718649 9.59348 1.35359 10.7814 2.28594 11.7137C3.21829 12.6461 4.40617 13.281 5.69938 13.5382C6.99259 13.7955 8.33303 13.6635 9.55121 13.1589C10.7694 12.6543 11.8106 11.7998 12.5431 10.7035C13.2757 9.60715 13.6666 8.31822 13.6666 6.99967C13.6651 5.23205 12.9622 3.53728 11.7123 2.28738C10.4624 1.03749 8.76761 0.334597 6.99998 0.333008V0.333008ZM11.4086 3.40901C12.229 4.41018 12.6829 5.66141 12.6953 6.95567C11.3897 6.69813 10.0531 6.63657 8.72932 6.77301C8.68998 6.67367 8.64798 6.57834 8.60665 6.47901C8.48998 6.20034 8.36132 5.92367 8.22932 5.65301C9.46572 5.1933 10.5613 4.42 11.4086 3.40901V3.40901ZM5.66665 1.47101C6.10358 1.36739 6.55094 1.31415 6.99998 1.31234C8.39215 1.31049 9.73628 1.82118 10.776 2.74701C10.0002 3.70602 8.96406 4.42064 7.79198 4.80501C7.15637 3.6491 6.44644 2.53565 5.66665 1.47167V1.47101ZM1.42798 5.84101C1.61018 4.97809 1.98968 4.16907 2.53675 3.47731C3.08382 2.78554 3.78361 2.22983 4.58132 1.85367C5.34451 2.91257 6.04955 4.0122 6.69332 5.14767C4.9734 5.59677 3.2042 5.82968 1.42665 5.84101H1.42798ZM2.76798 10.8143C1.82449 9.7717 1.30181 8.41583 1.30132 7.00967C1.30132 6.95034 1.30132 6.89301 1.30132 6.83501C3.28022 6.83993 5.24998 6.56636 7.15265 6.02234C7.31465 6.34034 7.47065 6.66501 7.61398 6.98834C7.53798 7.00967 7.46265 7.03301 7.38998 7.05501C5.4671 7.74858 3.83581 9.07297 2.76198 10.8123L2.76798 10.8143ZM6.99998 12.7037C5.73358 12.7051 4.50313 12.2827 3.50465 11.5037C4.49176 9.7977 6.08729 8.52794 7.97132 7.94901C7.98326 7.94384 7.99551 7.93939 8.00798 7.93567C8.54738 9.33335 8.95341 10.7789 9.22065 12.253V12.253C8.51844 12.5516 7.76304 12.7049 6.99998 12.7037V12.7037ZM10.1813 11.729C9.92838 10.3459 9.55838 8.9868 9.07532 7.66634C10.2615 7.49136 11.4714 7.57413 12.6226 7.90901C12.4984 8.67864 12.2178 9.41466 11.7982 10.0717C11.3785 10.7287 10.8287 11.2927 10.1826 11.729H10.1813Z" fill="#242B36"/>
</svg>
