<svg width="133" height="22" viewBox="0 0 133 22" fill="none" xmlns="http://www.w3.org/2000/svg">
<path d="M16.0385 12.5366L13.1929 16.6341L16.2972 21.5H24.3164L22.5056 19.1951H20.6948L16.0385 12.5366Z" fill="#007456"/>
<path d="M20.6948 2.80488L16.0385 9.46342L13.1929 5.36585L16.2972 0.5H24.3164L22.2469 2.80488H20.6948Z" fill="#FA8C00"/>
<path d="M7.76055 21.5H0L1.8108 19.1951H3.88028L9.31266 11L3.62159 2.80488H1.8108L0 0.5H8.01924L15.0037 11L7.76055 21.5Z" fill="#007456"/>
<path d="M32.584 18.0618C32.1713 18.0618 31.8275 17.9537 31.5524 17.7374C31.291 17.5076 31.1397 17.2305 31.0985 16.9061C31.0572 16.5681 31.1672 16.2234 31.4286 15.872L35.9883 9.93117V11.3302L31.6143 5.61241C31.3529 5.24745 31.236 4.90276 31.2635 4.57834C31.3048 4.24041 31.4561 3.96331 31.7174 3.74703C31.9925 3.51724 32.3295 3.40234 32.7284 3.40234C33.0723 3.40234 33.368 3.48345 33.6156 3.64565C33.8769 3.80786 34.1383 4.06469 34.3996 4.41614L37.8039 9.03903H36.7723L40.156 4.41614C40.4173 4.05117 40.6786 3.79434 40.94 3.64565C41.2013 3.48345 41.5039 3.40234 41.8478 3.40234C42.2604 3.40234 42.5974 3.51048 42.8588 3.72676C43.1339 3.94303 43.2852 4.22014 43.3127 4.55807C43.3539 4.88248 43.237 5.23393 42.9619 5.61241L38.5673 11.3302V9.93117L43.1063 15.872C43.3814 16.2234 43.4984 16.5681 43.4571 16.9061C43.4296 17.2305 43.2783 17.5076 43.0032 17.7374C42.7418 17.9537 42.398 18.0618 41.9716 18.0618C41.6415 18.0618 41.3457 17.9807 41.0844 17.8185C40.8368 17.6563 40.5755 17.3927 40.3004 17.0277L36.7517 12.2223H37.8039L34.2552 17.0277C33.9938 17.3927 33.7325 17.6563 33.4712 17.8185C33.2098 17.9807 32.9141 18.0618 32.584 18.0618Z" fill="#ECEDEF"/>
<path d="M47.4096 18.0618C46.8869 18.0618 46.488 17.9199 46.2129 17.636C45.9378 17.3521 45.8003 16.9534 45.8003 16.4397V5.02441C45.8003 4.51076 45.9378 4.112 46.2129 3.82814C46.488 3.54428 46.8869 3.40234 47.4096 3.40234C47.9185 3.40234 48.3105 3.54428 48.5856 3.82814C48.8607 4.112 48.9983 4.51076 48.9983 5.02441V16.4397C48.9983 16.9534 48.8607 17.3521 48.5856 17.636C48.3243 17.9199 47.9323 18.0618 47.4096 18.0618Z" fill="#ECEDEF"/>
<path d="M53.5554 17.8793C53.0327 17.8793 52.6269 17.7374 52.3381 17.4535C52.063 17.1697 51.9254 16.7777 51.9254 16.2775V5.14607C51.9254 4.6189 52.063 4.22014 52.3381 3.94979C52.6132 3.67945 53.0121 3.54428 53.5347 3.54428C54.0437 3.54428 54.4357 3.67945 54.7108 3.94979C54.9859 4.22014 55.1234 4.6189 55.1234 5.14607V15.2232H60.6528C61.093 15.2232 61.43 15.3381 61.6638 15.5679C61.9114 15.7977 62.0352 16.1221 62.0352 16.5411C62.0352 16.9737 61.9114 17.3048 61.6638 17.5346C61.43 17.7644 61.093 17.8793 60.6528 17.8793H53.5554Z" fill="#ECEDEF"/>
<path d="M63.9033 18.0618C63.5182 18.0618 63.2019 17.9739 62.9543 17.7982C62.7204 17.6225 62.5691 17.3859 62.5004 17.0886C62.4453 16.7912 62.5072 16.46 62.6861 16.095L67.9679 4.72027C68.1879 4.26069 68.4493 3.92952 68.7519 3.72676C69.0545 3.51048 69.4052 3.40234 69.8041 3.40234C70.203 3.40234 70.5538 3.51048 70.8564 3.72676C71.159 3.92952 71.4134 4.26069 71.6197 4.72027L76.9428 16.095C77.1216 16.46 77.1835 16.7979 77.1285 17.1088C77.0872 17.4062 76.9497 17.6428 76.7159 17.8185C76.482 17.9807 76.1794 18.0618 75.8081 18.0618C75.3404 18.0618 74.9759 17.9537 74.7146 17.7374C74.467 17.5211 74.2469 17.1832 74.0543 16.7236L72.8164 13.9052L74.0956 14.7771H65.492L66.7712 13.9052L65.5539 16.7236C65.3476 17.1967 65.1275 17.5414 64.8937 17.7577C64.6736 17.9604 64.3435 18.0618 63.9033 18.0618ZM69.7629 6.93034L67.1219 13.1145L66.5649 12.3237H73.0227L72.4657 13.1145L69.8041 6.93034H69.7629Z" fill="#ECEDEF"/>
<path d="M80.5107 18.0618C80.0293 18.0618 79.6579 17.9334 79.3966 17.6766C79.149 17.4062 79.0252 17.0277 79.0252 16.5411V4.98386C79.0252 4.47021 79.149 4.07821 79.3966 3.80786C79.6579 3.53752 80.0018 3.40234 80.4282 3.40234C80.7996 3.40234 81.0815 3.47669 81.2741 3.62538C81.4804 3.76055 81.7143 3.99034 81.9756 4.31476L89.2175 13.3781H88.6604V4.90276C88.6604 4.42966 88.7842 4.06469 89.0318 3.80786C89.2931 3.53752 89.6645 3.40234 90.1459 3.40234C90.6273 3.40234 90.9918 3.53752 91.2394 3.80786C91.5008 4.06469 91.6314 4.42966 91.6314 4.90276V16.6019C91.6314 17.048 91.5145 17.4062 91.2807 17.6766C91.0469 17.9334 90.7305 18.0618 90.3316 18.0618C89.9465 18.0618 89.637 17.9874 89.4032 17.8388C89.1831 17.6901 88.9424 17.4535 88.681 17.1291L81.4598 8.06579H81.9962V16.5411C81.9962 17.0277 81.8724 17.4062 81.6249 17.6766C81.3773 17.9334 81.0059 18.0618 80.5107 18.0618Z" fill="#ECEDEF"/>
<path d="M101.616 18.1023C100.048 18.1023 98.7068 17.7982 97.5927 17.1899C96.4785 16.5817 95.6189 15.7301 95.0136 14.6352C94.4222 13.5268 94.1265 12.2223 94.1265 10.7219C94.1265 9.6 94.2915 8.59297 94.6216 7.70083C94.9655 6.79517 95.4607 6.02469 96.1071 5.38938C96.7536 4.74055 97.5376 4.24041 98.4592 3.88896C99.3945 3.53752 100.447 3.36179 101.616 3.36179C102.304 3.36179 102.998 3.44966 103.7 3.62538C104.415 3.78759 105.034 4.02414 105.557 4.33503C105.901 4.52427 106.134 4.76083 106.258 5.04469C106.382 5.32855 106.416 5.61241 106.361 5.89628C106.32 6.18014 106.203 6.42345 106.011 6.62621C105.832 6.82897 105.605 6.95738 105.33 7.01145C105.055 7.06552 104.745 7.00469 104.401 6.82897C103.989 6.58566 103.555 6.40993 103.101 6.30179C102.648 6.19365 102.187 6.13959 101.719 6.13959C100.798 6.13959 100.02 6.32207 99.3876 6.68703C98.7687 7.03848 98.301 7.55214 97.9847 8.228C97.6683 8.90386 97.5101 9.73517 97.5101 10.7219C97.5101 11.6952 97.6683 12.5265 97.9847 13.2159C98.301 13.9052 98.7687 14.4324 99.3876 14.7974C100.02 15.1488 100.798 15.3246 101.719 15.3246C102.159 15.3246 102.606 15.2705 103.06 15.1623C103.528 15.0542 103.975 14.8852 104.401 14.6554C104.759 14.4797 105.075 14.4189 105.35 14.473C105.639 14.5135 105.873 14.6352 106.052 14.8379C106.244 15.0272 106.361 15.257 106.403 15.5273C106.458 15.7977 106.43 16.068 106.32 16.3383C106.21 16.6087 106.004 16.8385 105.701 17.0277C105.192 17.3657 104.566 17.6292 103.824 17.8185C103.081 18.0077 102.345 18.1023 101.616 18.1023Z" fill="#ECEDEF"/>
<path d="M110.335 17.8793C109.798 17.8793 109.386 17.7374 109.097 17.4535C108.808 17.1697 108.664 16.7641 108.664 16.237V5.22717C108.664 4.7 108.808 4.29448 109.097 4.01062C109.386 3.72676 109.798 3.58483 110.335 3.58483H117.536C117.948 3.58483 118.258 3.69297 118.464 3.90924C118.684 4.112 118.794 4.40938 118.794 4.80138C118.794 5.2069 118.684 5.51779 118.464 5.73407C118.258 5.93683 117.948 6.03821 117.536 6.03821H111.717V9.38372H117.061C117.487 9.38372 117.804 9.49186 118.01 9.70814C118.23 9.9109 118.34 10.215 118.34 10.6206C118.34 11.0261 118.23 11.337 118.01 11.5532C117.804 11.756 117.487 11.8574 117.061 11.8574H111.717V15.4259H117.536C117.948 15.4259 118.258 15.5341 118.464 15.7503C118.684 15.9531 118.794 16.2505 118.794 16.6425C118.794 17.048 118.684 17.3589 118.464 17.5752C118.258 17.7779 117.948 17.8793 117.536 17.8793H110.335Z" fill="#ECEDEF"/>
<path d="M122.765 18.0618C122.242 18.0618 121.844 17.9199 121.568 17.636C121.293 17.3521 121.156 16.9534 121.156 16.4397V5.18662C121.156 4.65945 121.293 4.26069 121.568 3.99034C121.857 3.72 122.263 3.58483 122.786 3.58483H127.799C129.422 3.58483 130.674 3.97007 131.554 4.74055C132.435 5.51103 132.875 6.58566 132.875 7.96441C132.875 8.85655 132.675 9.62703 132.277 10.2759C131.878 10.9247 131.3 11.4248 130.543 11.7763C129.801 12.1277 128.886 12.3034 127.799 12.3034L127.964 11.9588H128.81C129.388 11.9588 129.89 12.1007 130.316 12.3846C130.757 12.6549 131.135 13.0739 131.451 13.6417L132.73 15.9734C132.923 16.3113 133.012 16.6425 132.999 16.9669C132.985 17.2913 132.861 17.5549 132.627 17.7577C132.393 17.9604 132.05 18.0618 131.596 18.0618C131.142 18.0618 130.77 17.9672 130.482 17.7779C130.206 17.5887 129.959 17.2981 129.739 16.9061L127.758 13.3172C127.552 12.9388 127.297 12.6819 126.995 12.5468C126.706 12.4116 126.348 12.344 125.922 12.344H124.354V16.4397C124.354 16.9534 124.216 17.3521 123.941 17.636C123.68 17.9199 123.288 18.0618 122.765 18.0618ZM124.354 10.0731H127.222C128.074 10.0731 128.714 9.90414 129.14 9.56621C129.581 9.22828 129.801 8.72138 129.801 8.04552C129.801 7.38317 129.581 6.88303 129.14 6.5451C128.714 6.20717 128.074 6.03821 127.222 6.03821H124.354V10.0731Z" fill="#ECEDEF"/>
</svg>
