<svg width="12" height="10" viewBox="0 0 12 10" fill="none" xmlns="http://www.w3.org/2000/svg">
<path fill-rule="evenodd" clip-rule="evenodd" d="M8.53229 3.01385C8.1013 2.9957 7.67267 3.08278 7.28845 3.26657C6.90423 3.45036 6.57761 3.72454 6.34064 4.06221V3.00586H4.22864V9.66634H6.35558V6.45599C6.35558 5.60878 6.56322 4.79087 7.78135 4.79087C9.03718 4.79087 9.20002 5.7593 9.20002 6.51194V9.66634H11.3334V6.10631C11.3334 4.35794 10.8356 3.01385 8.53229 3.01385Z" fill="#242B36"/>
<path fill-rule="evenodd" clip-rule="evenodd" d="M1.73335 0.333008C1.52239 0.333008 1.31616 0.391602 1.14075 0.501382C0.965333 0.611161 0.828616 0.767195 0.747883 0.949752C0.667149 1.13231 0.646026 1.33319 0.687183 1.52699C0.728341 1.72079 0.829931 1.89881 0.979107 2.03853C1.12828 2.17825 1.31834 2.27341 1.52526 2.31196C1.73217 2.35051 1.94664 2.33072 2.14155 2.2551C2.33646 2.17949 2.50305 2.05143 2.62025 1.88714C2.73746 1.72284 2.80002 1.52968 2.80002 1.33208C2.80002 1.06711 2.68764 0.812992 2.4876 0.625629C2.28756 0.438267 2.01625 0.333008 1.73335 0.333008Z" fill="#242B36"/>
<path d="M2.80002 3.01385H0.666688V9.66634H2.80002V3.01385Z" fill="#242B36"/>
</svg>
