<svg width="952" height="292" viewBox="0 0 952 292" fill="none" xmlns="http://www.w3.org/2000/svg">
<path d="M1 154C1 154 51.7027 72.9353 98.5 35.5004C284.366 -113.18 454.988 273.089 683.5 206.5C802.693 171.767 951.5 35.5004 951.5 35.5004M1 192.137C1 192.137 51.7027 111.072 98.5 73.6371C284.366 -75.0437 454.988 311.226 683.5 244.637C802.693 209.904 951.5 73.6371 951.5 73.6371M1 230.274C1 230.274 51.7027 149.209 98.5 111.774C284.366 -36.907 454.988 349.363 683.5 282.774C802.693 248.041 951.5 111.774 951.5 111.774" stroke="url(#paint0_linear_5071_17965)"/>
<defs>
<linearGradient id="paint0_linear_5071_17965" x1="1" y1="183.998" x2="951.5" y2="183.998" gradientUnits="userSpaceOnUse">
<stop stop-color="#083C2F"/>
<stop offset="1" stop-color="#083C2F" stop-opacity="0.1"/>
</linearGradient>
</defs>
</svg>
