<svg width="628" height="881" viewBox="0 0 628 881" fill="none" xmlns="http://www.w3.org/2000/svg">
<rect x="543.665" y="1.52588e-05" width="155.054" height="646.718" rx="77.527" transform="rotate(57.2091 543.665 1.52588e-05)" fill="url(#paint0_linear_3005_20053)"/>
<rect x="238.872" y="534.92" width="17.106" height="150.418" rx="8.553" transform="rotate(57.2091 238.872 534.92)" fill="url(#paint1_linear_3005_20053)"/>
<rect x="359.386" y="515.92" width="17.106" height="220.023" rx="8.553" transform="rotate(57.2091 359.386 515.92)" fill="url(#paint2_linear_3005_20053)"/>
<rect x="535.386" y="543.92" width="17.106" height="220.023" rx="8.553" transform="rotate(57.2091 535.386 543.92)" fill="url(#paint3_linear_3005_20053)"/>
<rect x="528.386" y="323.92" width="44.1483" height="220.023" rx="22.0742" transform="rotate(57.2091 528.386 323.92)" fill="url(#paint4_linear_3005_20053)"/>
<rect x="517.386" y="707.92" width="63.7752" height="220.023" rx="31.8876" transform="rotate(57.2091 517.386 707.92)" fill="url(#paint5_linear_3005_20053)"/>
<defs>
<linearGradient id="paint0_linear_3005_20053" x1="627.282" y1="634.864" x2="587.146" y2="103.517" gradientUnits="userSpaceOnUse">
<stop stop-color="#125D4A"/>
<stop offset="1" stop-color="#156550"/>
</linearGradient>
<linearGradient id="paint1_linear_3005_20053" x1="248.097" y1="682.581" x2="228.794" y2="561.365" gradientUnits="userSpaceOnUse">
<stop stop-color="#125D4A"/>
<stop offset="1" stop-color="#156550"/>
</linearGradient>
<linearGradient id="paint2_linear_3005_20053" x1="368.611" y1="731.91" x2="328.442" y2="559.463" gradientUnits="userSpaceOnUse">
<stop stop-color="#125D4A"/>
<stop offset="1" stop-color="#156550"/>
</linearGradient>
<linearGradient id="paint3_linear_3005_20053" x1="544.611" y1="759.91" x2="504.442" y2="587.463" gradientUnits="userSpaceOnUse">
<stop stop-color="#156550"/>
<stop offset="1" stop-color="#125D4A"/>
</linearGradient>
<linearGradient id="paint4_linear_3005_20053" x1="552.194" y1="539.91" x2="535.918" y2="359.575" gradientUnits="userSpaceOnUse">
<stop stop-color="#156550"/>
<stop offset="1" stop-color="#125D4A"/>
</linearGradient>
<linearGradient id="paint5_linear_3005_20053" x1="551.778" y1="923.91" x2="540.463" y2="742.813" gradientUnits="userSpaceOnUse">
<stop stop-color="#125D4A"/>
<stop offset="1" stop-color="#156550"/>
</linearGradient>
</defs>
</svg>
