<svg width="17" height="17" viewBox="0 0 17 17" fill="none" xmlns="http://www.w3.org/2000/svg">
<mask id="path-1-inside-1_5001_32949" fill="white">
<path d="M4.59998 5.29961L5.29998 4.59961L8.09998 7.39961L10.9 4.59961L11.6 5.29961L8.79998 8.09961L11.6 10.8996L10.9 11.5996L8.09998 8.79961L5.29998 11.5996L4.59998 10.8996L7.39998 8.09961L4.59998 5.29961Z"/>
</mask>
<path d="M4.59998 5.29961L5.29998 4.59961L8.09998 7.39961L10.9 4.59961L11.6 5.29961L8.79998 8.09961L11.6 10.8996L10.9 11.5996L8.09998 8.79961L5.29998 11.5996L4.59998 10.8996L7.39998 8.09961L4.59998 5.29961Z" fill="#FA8C00"/>
<path d="M4.59998 5.29961L5.29998 4.59961L8.09998 7.39961L10.9 4.59961L11.6 5.29961L8.79998 8.09961L11.6 10.8996L10.9 11.5996L8.09998 8.79961L5.29998 11.5996L4.59998 10.8996L7.39998 8.09961L4.59998 5.29961Z" fill="black" fill-opacity="0.2"/>
<path d="M4.59998 5.29961L3.89287 4.5925L3.18576 5.29961L3.89287 6.00672L4.59998 5.29961ZM5.29998 4.59961L6.00708 3.8925L5.29998 3.1854L4.59287 3.8925L5.29998 4.59961ZM8.09998 7.39961L7.39287 8.10672L8.09998 8.81382L8.80708 8.10672L8.09998 7.39961ZM10.9 4.59961L11.6071 3.8925L10.9 3.1854L10.1929 3.8925L10.9 4.59961ZM11.6 5.29961L12.3071 6.00672L13.0142 5.29961L12.3071 4.5925L11.6 5.29961ZM8.79998 8.09961L8.09287 7.3925L7.38576 8.09961L8.09287 8.80672L8.79998 8.09961ZM11.6 10.8996L12.3071 11.6067L13.0142 10.8996L12.3071 10.1925L11.6 10.8996ZM10.9 11.5996L10.1929 12.3067L10.9 13.0138L11.6071 12.3067L10.9 11.5996ZM8.09998 8.79961L8.80708 8.0925L8.09998 7.3854L7.39287 8.0925L8.09998 8.79961ZM5.29998 11.5996L4.59287 12.3067L5.29998 13.0138L6.00708 12.3067L5.29998 11.5996ZM4.59998 10.8996L3.89287 10.1925L3.18576 10.8996L3.89287 11.6067L4.59998 10.8996ZM7.39998 8.09961L8.10708 8.80672L8.81419 8.09961L8.10708 7.3925L7.39998 8.09961ZM4.59998 5.29961L5.30708 6.00672L6.00708 5.30672L5.29998 4.59961L4.59287 3.8925L3.89287 4.5925L4.59998 5.29961ZM5.29998 4.59961L4.59287 5.30672L7.39287 8.10672L8.09998 7.39961L8.80708 6.6925L6.00708 3.8925L5.29998 4.59961ZM8.09998 7.39961L8.80708 8.10672L11.6071 5.30672L10.9 4.59961L10.1929 3.8925L7.39287 6.6925L8.09998 7.39961ZM10.9 4.59961L10.1929 5.30672L10.8929 6.00672L11.6 5.29961L12.3071 4.5925L11.6071 3.8925L10.9 4.59961ZM11.6 5.29961L10.8929 4.5925L8.09287 7.3925L8.79998 8.09961L9.50708 8.80672L12.3071 6.00672L11.6 5.29961ZM8.79998 8.09961L8.09287 8.80672L10.8929 11.6067L11.6 10.8996L12.3071 10.1925L9.50708 7.3925L8.79998 8.09961ZM11.6 10.8996L10.8929 10.1925L10.1929 10.8925L10.9 11.5996L11.6071 12.3067L12.3071 11.6067L11.6 10.8996ZM10.9 11.5996L11.6071 10.8925L8.80708 8.0925L8.09998 8.79961L7.39287 9.50672L10.1929 12.3067L10.9 11.5996ZM8.09998 8.79961L7.39287 8.0925L4.59287 10.8925L5.29998 11.5996L6.00708 12.3067L8.80708 9.50672L8.09998 8.79961ZM5.29998 11.5996L6.00708 10.8925L5.30708 10.1925L4.59998 10.8996L3.89287 11.6067L4.59287 12.3067L5.29998 11.5996ZM4.59998 10.8996L5.30708 11.6067L8.10708 8.80672L7.39998 8.09961L6.69287 7.3925L3.89287 10.1925L4.59998 10.8996ZM7.39998 8.09961L8.10708 7.3925L5.30708 4.5925L4.59998 5.29961L3.89287 6.00672L6.69287 8.80672L7.39998 8.09961Z" fill="#FA8C00" mask="url(#path-1-inside-1_5001_32949)"/>
<path d="M0.599976 8.09961C0.599976 9.08452 0.793969 10.0598 1.17088 10.9697C1.54779 11.8797 2.10024 12.7065 2.79667 13.4029C3.49311 14.0993 4.31991 14.6518 5.22985 15.0287C6.13979 15.4056 7.11506 15.5996 8.09998 15.5996C9.08489 15.5996 10.0602 15.4056 10.9701 15.0287C11.88 14.6518 12.7068 14.0993 13.4033 13.4029C14.0997 12.7065 14.6522 11.8797 15.0291 10.9697C15.406 10.0598 15.6 9.08452 15.6 8.09961C15.6 7.1147 15.406 6.13943 15.0291 5.22948C14.6522 4.31954 14.0997 3.49275 13.4033 2.79631C12.7068 2.09987 11.88 1.54742 10.9701 1.17051C10.0602 0.793603 9.08489 0.599609 8.09998 0.599609C7.11506 0.599609 6.13979 0.793603 5.22985 1.17051C4.31991 1.54742 3.49311 2.09987 2.79667 2.79631C2.10024 3.49275 1.54779 4.31954 1.17088 5.22948C0.793969 6.13943 0.599976 7.1147 0.599976 8.09961Z" stroke="#FA8C00" stroke-width="1.2" stroke-linecap="round"/>
</svg>
