<svg width="64" height="64" viewBox="0 0 64 64" fill="none" xmlns="http://www.w3.org/2000/svg">
<path d="M44.5437 17.3313C44.5437 17.6813 44.5312 18.0313 44.5062 18.3813C44.4937 18.5563 44.475 18.725 44.4562 18.9C44.4437 19.0063 44.4812 19.2313 44.4562 18.9063C44.4625 19.0125 44.425 19.1438 44.4062 19.2438C44.2937 19.9375 44.125 20.625 43.9062 21.2938C43.8 21.6125 43.6812 21.925 43.5625 22.2313C43.4562 22.5 43.6812 21.975 43.5562 22.2375C43.525 22.3125 43.4875 22.3875 43.4562 22.4625C43.375 22.6375 43.2937 22.8125 43.2 22.9813C42.9 23.5688 42.5562 24.1313 42.175 24.6688C42.0937 24.7875 42 24.975 41.8812 25.0625C42.1 24.8938 41.95 24.975 41.875 25.0688C41.825 25.1313 41.775 25.1938 41.7187 25.2563C41.4937 25.5313 41.2562 25.7938 41.0062 26.0438C40.7812 26.2813 40.5437 26.5063 40.3 26.725C40.175 26.8313 40.0562 26.9438 39.9312 27.0438C39.8687 27.0938 39.8062 27.15 39.7437 27.2C39.7 27.2313 39.6562 27.2688 39.6125 27.3C39.7562 27.1875 39.775 27.175 39.6687 27.2563C39.1375 27.65 38.5937 28.0125 38.0187 28.325C37.7312 28.4875 37.4375 28.6313 37.1375 28.775C37.0625 28.8125 36.9875 28.8438 36.9125 28.875C36.6437 28.9938 37.175 28.7688 36.9062 28.8813C36.725 28.9563 36.5437 29.025 36.3625 29.0938C35.7 29.3313 35.025 29.5188 34.3375 29.6563C34.1687 29.6875 34 29.7188 33.8312 29.7438C33.7562 29.7563 33.6562 29.7875 33.575 29.7813C33.825 29.8 33.75 29.7563 33.65 29.7688C33.275 29.8063 32.9 29.8438 32.525 29.8563C31.7937 29.8813 31.075 29.8438 30.35 29.7688C30.05 29.7375 30.6375 29.8125 30.3437 29.7688C30.2562 29.7563 30.175 29.7438 30.0875 29.7313C29.9187 29.7063 29.75 29.675 29.5875 29.6375C29.2312 29.5625 28.875 29.475 28.5187 29.375C28.2 29.2813 27.8812 29.1813 27.5625 29.0625C27.4312 29.0125 27.3 28.9625 27.175 28.9125C27.15 28.9 27.125 28.8938 27.1 28.8813C26.975 28.8313 27 28.8375 27.1687 28.9125C27.0875 28.9125 26.9375 28.8125 26.8687 28.775C26.2437 28.4875 25.6437 28.1563 25.0687 27.775C24.9312 27.6875 24.7937 27.5938 24.6625 27.5C24.5437 27.4188 24.3562 27.325 24.2687 27.2063C24.4375 27.425 24.3562 27.275 24.2625 27.2C24.2 27.15 24.1375 27.1 24.075 27.0438C23.9312 26.9188 23.7812 26.7938 23.6437 26.6688C23.1562 26.2313 22.7062 25.7563 22.2875 25.2563C22.2375 25.1938 22.1812 25.1313 22.1312 25.0688C22.0562 24.975 21.9 24.8938 22.125 25.0625C22.0125 24.975 21.9187 24.7813 21.8312 24.6688C21.625 24.3813 21.4312 24.0813 21.25 23.775C21.0812 23.4938 20.9187 23.2063 20.775 22.9063C20.7 22.7563 20.6312 22.6125 20.5562 22.4625C20.5187 22.3875 20.4875 22.3125 20.4562 22.2375C20.4 22.1125 20.4125 22.1375 20.4812 22.3063C20.4625 22.2563 20.4375 22.2063 20.4187 22.15C20.1687 21.5313 19.9625 20.8875 19.8062 20.2375C19.725 19.9063 19.6562 19.575 19.6062 19.2375C19.5937 19.15 19.5812 19.0688 19.5687 18.9813C19.525 18.6813 19.6 19.275 19.5687 18.975C19.55 18.775 19.525 18.575 19.5125 18.375C19.4562 17.65 19.4625 16.9188 19.5187 16.1938C19.5312 16.0188 19.55 15.85 19.5687 15.675C19.6 15.375 19.525 15.9625 19.5687 15.6688C19.5812 15.5813 19.5937 15.5 19.6062 15.4125C19.6687 15.05 19.7375 14.6875 19.8312 14.3313C19.9937 13.6813 20.2062 13.0438 20.4562 12.425C20.5625 12.1563 20.3375 12.6813 20.4625 12.4188C20.4937 12.3438 20.5312 12.2688 20.5625 12.1938C20.6312 12.0438 20.7062 11.8938 20.7812 11.75C20.9437 11.4313 21.1187 11.1188 21.3 10.8125C21.4687 10.5313 21.65 10.2563 21.8437 9.98751C21.925 9.86876 22.0187 9.68126 22.1375 9.59376C21.9187 9.76251 22.0687 9.68126 22.1437 9.58751C22.2125 9.50001 22.2812 9.41876 22.35 9.33751C22.7687 8.83751 23.2312 8.36876 23.7187 7.93126C23.8437 7.82501 23.9625 7.71251 24.0875 7.61251C24.15 7.56251 24.2125 7.50626 24.275 7.45626C24.3687 7.38126 24.45 7.22501 24.2812 7.45001C24.3687 7.33751 24.5625 7.24376 24.675 7.15626C24.8312 7.04376 24.9875 6.93751 25.15 6.83126C25.725 6.45626 26.3312 6.12501 26.9562 5.84376C27.0062 5.81876 27.125 5.74376 27.1812 5.74376C27.1312 5.76251 27.0812 5.78751 27.0375 5.80626C27.0875 5.78751 27.1375 5.76251 27.1937 5.74376C27.325 5.69376 27.45 5.64376 27.5812 5.59376C27.9187 5.46876 28.2687 5.35626 28.6187 5.25626C28.9437 5.16251 29.275 5.08751 29.6062 5.01876C29.775 4.98751 29.9437 4.95626 30.1062 4.92501C30.1937 4.91251 30.275 4.90001 30.3625 4.88751C30.5 4.86876 30.475 4.86876 30.2875 4.90001L30.4562 4.88126C31.1812 4.80001 31.9062 4.77501 32.6375 4.80626C32.9687 4.81876 33.3 4.85001 33.6312 4.88751C33.7437 4.90001 33.8875 4.86251 33.6 4.88126C33.675 4.87501 33.775 4.90626 33.8562 4.91876C34.05 4.95001 34.25 4.98751 34.4437 5.02501C35.1312 5.16251 35.8062 5.35626 36.4625 5.60001C36.6187 5.65626 36.775 5.71876 36.925 5.78126C37.1937 5.88751 36.6687 5.66251 36.9312 5.78751C37.0062 5.81876 37.0812 5.85626 37.1562 5.88751C37.4812 6.03751 37.8 6.20001 38.1125 6.37501C38.4 6.53751 38.6812 6.70626 38.9562 6.88751C39.0687 6.96251 39.1812 7.03751 39.2937 7.11876C39.4312 7.21251 39.6562 7.32501 39.7562 7.45626C39.5875 7.23751 39.6687 7.38751 39.7625 7.46251C39.825 7.51251 39.8875 7.56251 39.95 7.61876C40.075 7.72501 40.2 7.83126 40.3187 7.93751C40.5812 8.17501 40.8375 8.41876 41.0812 8.67501C41.3062 8.91251 41.525 9.15626 41.7375 9.40626C41.7875 9.46876 41.8437 9.53126 41.8937 9.59376C41.9687 9.68751 42.125 9.76876 41.9 9.60001C42.0312 9.70001 42.1437 9.92501 42.2375 10.0625C42.6125 10.6 42.9562 11.1688 43.25 11.7563C43.325 11.9063 43.3937 12.05 43.4687 12.2C43.5062 12.275 43.5375 12.35 43.5687 12.425C43.6875 12.6938 43.4625 12.1625 43.575 12.4313C43.7062 12.7688 43.8375 13.1063 43.9437 13.45C44.1562 14.1188 44.325 14.8063 44.4312 15.5063C44.4437 15.5813 44.475 15.6813 44.4687 15.7625C44.4937 15.4438 44.4562 15.6688 44.4687 15.7688C44.4875 15.9438 44.5062 16.1125 44.5187 16.2875C44.525 16.6313 44.5375 16.9813 44.5437 17.3313C44.5437 17.9875 45.1187 18.6125 45.7937 18.5813C46.4687 18.55 47.0437 18.0313 47.0437 17.3313C47.0312 14.2688 46.1 11.1938 44.3125 8.69376C42.5062 6.16876 40.0187 4.25626 37.1062 3.18126C34.1875 2.10626 30.8875 2.00626 27.9 2.85626C25.0187 3.67501 22.3687 5.38126 20.4625 7.69376C18.4562 10.1375 17.2562 13.0875 17.0062 16.2375C16.7625 19.3125 17.5312 22.475 19.1312 25.1125C20.675 27.6563 23 29.7688 25.725 30.9938C28.65 32.3125 31.8812 32.6875 35.0375 32.0625C37.9875 31.475 40.7562 29.9313 42.8375 27.7625C44.925 25.5875 46.375 22.7688 46.8375 19.7813C46.9625 18.9688 47.0437 18.15 47.0437 17.3313C47.0437 16.675 46.4687 16.05 45.7937 16.0813C45.1125 16.1125 44.5437 16.6313 44.5437 17.3313Z" fill="#242B36"/>
<path d="M52.5937 59.2128C52.0562 59.2128 51.525 59.2128 50.9875 59.2128C49.5687 59.2128 48.1437 59.2128 46.725 59.2128C44.6937 59.2128 42.6625 59.2128 40.6312 59.2128C38.2625 59.2128 35.9 59.2128 33.5312 59.2128C31.1062 59.2128 28.6875 59.2128 26.2625 59.2128C24.0562 59.2128 21.85 59.2128 19.65 59.2128C17.9375 59.2128 16.2312 59.2128 14.5187 59.2128C13.5812 59.2128 12.6437 59.2128 11.7 59.2128C11.6187 59.2128 11.5375 59.2128 11.4562 59.2128C11.4437 59.2128 11.425 59.2128 11.4125 59.2128C11.3562 59.2128 11.2937 59.2128 11.2375 59.2065C11.25 59.2065 11.0687 59.2003 11.0687 59.194C11.0625 59.1815 11.3937 59.2565 11.15 59.2003C11.0437 59.1753 10.9312 59.1503 10.825 59.119C10.7875 59.1065 10.7437 59.0815 10.7062 59.0815C10.55 59.0565 10.9125 59.2003 10.775 59.1128C10.6937 59.0628 10.6062 59.0253 10.525 58.9815C10.4437 58.9315 10.3687 58.8753 10.2875 58.8253C10.1687 58.7565 10.3875 58.8878 10.3812 58.9003C10.375 58.9065 10.2437 58.7815 10.2312 58.769C10.1625 58.7065 10.1 58.6315 10.0375 58.5628C9.88748 58.4128 10.1562 58.7628 10.0125 58.5253C9.96248 58.444 9.91248 58.369 9.86248 58.2815C9.83748 58.2315 9.81248 58.1815 9.78748 58.1378C9.69373 57.9565 9.81873 58.2128 9.81873 58.2128C9.76248 58.219 9.69373 57.7065 9.66248 57.6503C9.74998 57.8128 9.68123 57.8628 9.67498 57.7315C9.67498 57.6753 9.66873 57.619 9.66248 57.5565C9.66248 57.5253 9.66248 57.494 9.66248 57.4628C9.66248 57.394 9.66248 57.3315 9.66248 57.2628C9.66248 55.2378 9.66248 53.2128 9.66248 51.1815C9.66248 50.9003 9.66248 50.6253 9.66248 50.344C9.66248 49.7128 9.76248 49.094 9.77498 48.469C9.77498 48.469 9.73748 48.7315 9.75623 48.5878C9.76248 48.5315 9.77498 48.4753 9.78123 48.419C9.79373 48.319 9.81248 48.219 9.83123 48.1253C9.86873 47.9128 9.90623 47.7065 9.95623 47.5003C10.0437 47.1003 10.15 46.7065 10.2687 46.319C10.3937 45.919 10.5375 45.5315 10.6937 45.144C10.775 44.9378 10.5875 45.3878 10.7125 45.1003C10.75 45.0128 10.7937 44.9253 10.8312 44.8378C10.9187 44.6503 11.0125 44.4628 11.1062 44.2815C11.4812 43.5628 11.9187 42.8878 12.4 42.2315C12.5312 42.0565 12.25 42.4128 12.4312 42.194C12.4937 42.119 12.55 42.044 12.6125 41.969C12.7437 41.8128 12.875 41.6565 13.0125 41.5065C13.2875 41.2003 13.575 40.9128 13.875 40.6315C14.1625 40.3628 14.4687 40.1065 14.775 39.8565C14.9437 39.719 14.5875 39.994 14.8125 39.8253C14.8875 39.769 14.9687 39.7128 15.0437 39.6565C15.2187 39.5315 15.4 39.4065 15.5875 39.2878C16.2562 38.8503 16.9625 38.4815 17.6875 38.1503C17.8875 38.0565 17.4687 38.2378 17.7312 38.1315C17.8187 38.094 17.9125 38.0565 18 38.0253C18.2062 37.944 18.4187 37.869 18.6312 37.8003C19.0187 37.6753 19.4062 37.5628 19.8062 37.469C20.2062 37.3753 20.6125 37.294 21.0187 37.2315C21.0625 37.2253 21.1437 37.2003 21.1875 37.2065C21.1937 37.2065 20.925 37.2378 21.0687 37.2253C21.1687 37.2128 21.2687 37.2003 21.3687 37.194C21.6 37.169 21.8312 37.1503 22.0625 37.1378C22.5375 37.1128 23.0187 37.119 23.4937 37.119H28.7625H35.9187H40.775H41.1437C41.7625 37.119 42.375 37.219 42.9875 37.2315C42.9875 37.2315 42.725 37.194 42.8687 37.2128C42.925 37.219 42.9812 37.2315 43.0375 37.2378C43.1375 37.2503 43.2375 37.269 43.3312 37.2878C43.5437 37.3253 43.75 37.3628 43.9562 37.4128C44.3562 37.5003 44.75 37.6065 45.1375 37.7253C45.5375 37.8503 45.925 37.994 46.3125 38.1503C46.5187 38.2315 46.0687 38.044 46.3562 38.169C46.4437 38.2065 46.5312 38.2503 46.6187 38.2878C46.8062 38.3753 46.9937 38.469 47.175 38.5628C47.8937 38.9378 48.5687 39.3753 49.225 39.8565C49.4 39.9878 49.0437 39.7065 49.2625 39.8878C49.3375 39.9503 49.4125 40.0065 49.4875 40.069C49.6437 40.2003 49.8 40.3315 49.95 40.469C50.2562 40.744 50.5437 41.0315 50.825 41.3315C51.0937 41.619 51.35 41.9253 51.6 42.2315C51.7375 42.4003 51.4625 42.044 51.6312 42.269C51.6875 42.344 51.7437 42.4253 51.8 42.5003C51.925 42.6753 52.05 42.8565 52.1687 43.044C52.6062 43.7128 52.975 44.419 53.3062 45.144C53.4 45.344 53.2187 44.9253 53.325 45.1878C53.3625 45.2753 53.4 45.369 53.4312 45.4565C53.5125 45.6628 53.5875 45.8753 53.6562 46.0878C53.7812 46.4753 53.8937 46.8628 53.9875 47.2628C54.0812 47.6628 54.1625 48.069 54.225 48.4753C54.2312 48.519 54.2562 48.6003 54.25 48.644C54.25 48.6503 54.2187 48.3815 54.2312 48.5253C54.2437 48.6253 54.2562 48.7253 54.2625 48.8253C54.2875 49.0565 54.3062 49.2878 54.3187 49.519C54.3562 50.2565 54.3375 50.994 54.3375 51.7315C54.3375 53.6378 54.3562 55.544 54.3375 57.4503V57.5628C54.3375 57.6065 54.3125 57.944 54.3312 57.7378C54.35 57.5315 54.3 57.8503 54.2875 57.9003C54.2812 57.9253 54.2062 58.219 54.1875 58.2128C54.1687 58.2128 54.3125 57.9815 54.2312 58.1003C54.2125 58.1315 54.1937 58.1753 54.175 58.2128C54.125 58.3065 54.0687 58.4003 54.0125 58.494C53.9937 58.5253 53.9625 58.5565 53.9437 58.594C53.8687 58.7315 54.1062 58.4253 53.9875 58.5315C53.9187 58.594 53.8625 58.6753 53.7937 58.7378C53.7625 58.769 53.7312 58.794 53.7062 58.819C53.6937 58.8253 53.6875 58.8378 53.675 58.844C53.5937 58.9128 53.5937 58.9128 53.675 58.8503C53.7062 58.7753 53.7562 58.794 53.675 58.8503C53.6312 58.8815 53.5875 58.9128 53.5375 58.9378C53.4562 58.9878 53.375 59.0315 53.2875 59.0753C53.0437 59.2065 53.4562 59.0315 53.2437 59.094C53.15 59.119 53.0625 59.1503 52.9625 59.1753C52.9187 59.1878 52.8812 59.194 52.8375 59.2003C52.5937 59.2565 52.925 59.1815 52.9187 59.194C52.925 59.219 52.6312 59.2128 52.5937 59.2128C51.9375 59.219 51.3125 59.7815 51.3437 60.4628C51.375 61.1315 51.8937 61.7253 52.5937 61.7128C54.85 61.6815 56.6437 59.9503 56.8312 57.719C56.8875 57.0315 56.8437 56.3253 56.8437 55.6378C56.8437 53.7378 56.8875 51.8378 56.8375 49.9378C56.75 46.319 55.4062 42.8565 53.075 40.1003C50.85 37.4628 47.6687 35.5815 44.2812 34.919C42.625 34.594 40.9812 34.6065 39.3062 34.6065C37.1625 34.6065 35.0125 34.6065 32.8687 34.6065C30.5437 34.6065 28.2187 34.6065 25.8875 34.6065C24.6937 34.6065 23.5 34.5753 22.3062 34.619C18.7 34.7503 15.25 36.1253 12.5187 38.4815C9.90623 40.7378 8.05623 43.9378 7.43123 47.3378C7.02498 49.5315 7.14998 51.7878 7.14998 54.0065V57.0753C7.14998 57.3503 7.14998 57.619 7.18123 57.894C7.31248 58.9503 7.77498 59.969 8.60623 60.6628C9.44373 61.3628 10.4375 61.719 11.5312 61.719H12.4062H16.2687H22.2125H29.3187H36.7687H43.625H49.0687H52.1812H52.5875C53.2437 61.719 53.8687 61.144 53.8375 60.469C53.8125 59.7815 53.2937 59.2128 52.5937 59.2128Z" fill="#242B36"/>
</svg>
