<svg width="20" height="20" viewBox="0 0 20 20" fill="none" xmlns="http://www.w3.org/2000/svg">
<g clip-path="url(#clip0_2043_4628)">
<path d="M4.6875 9.99941C4.6875 9.00852 4.96051 8.08027 5.4348 7.28547V3.91406H2.0634C0.725313 5.65188 0 7.7698 0 9.99941C0 12.229 0.725313 14.347 2.0634 16.0848H5.4348V12.7134C4.96051 11.9186 4.6875 10.9903 4.6875 9.99941Z" fill="#FBBD00"/>
<path d="M10 15.314L7.65625 17.6578L10 20.0015C12.2296 20.0015 14.3475 19.2762 16.0854 17.9381V14.5703H12.7175C11.9158 15.0463 10.9836 15.314 10 15.314Z" fill="#0F9D58"/>
<path d="M5.43391 12.7148L2.0625 16.0863C2.32742 16.4303 2.6159 16.7598 2.92805 17.072C4.8168 18.9607 7.32801 20.0009 9.9991 20.0009V15.3134C8.06066 15.3134 6.36172 14.2696 5.43391 12.7148Z" fill="#31AA52"/>
<path d="M20 9.99906C20 9.39066 19.9449 8.78113 19.8363 8.18746L19.7483 7.70703H10V12.3945H14.7442C14.2835 13.311 13.5752 14.0587 12.7175 14.5679L16.0853 17.9357C16.4294 17.6708 16.7589 17.3823 17.0711 17.0702C18.9598 15.1814 20 12.6702 20 9.99906Z" fill="#3C79E6"/>
<path d="M13.7565 6.24348L14.1708 6.65777L17.4854 3.34324L17.0711 2.92895C15.1823 1.0402 12.6711 0 10 0L7.65625 2.34375L10 4.6875C11.419 4.6875 12.7531 5.24008 13.7565 6.24348Z" fill="#CF2D48"/>
<path d="M9.99914 4.6875V0C7.32805 0 4.81684 1.0402 2.92805 2.92891C2.6159 3.24105 2.32742 3.57055 2.0625 3.91465L5.43391 7.28605C6.36176 5.73125 8.0607 4.6875 9.99914 4.6875Z" fill="#EB4132"/>
</g>
<defs>
<clipPath id="clip0_2043_4628">
<rect width="20" height="20" fill="white"/>
</clipPath>
</defs>
</svg>
