<svg width="64" height="64" viewBox="0 0 64 64" fill="none" xmlns="http://www.w3.org/2000/svg">
<g clip-path="url(#clip0_2043_5040)">
<path d="M5.61493 56.8768C5.3445 57.6906 5.27121 58.557 5.40109 59.4047C5.53098 60.2524 5.86032 61.0571 6.36201 61.7526C6.8637 62.4482 7.5234 63.0146 8.28681 63.4053C9.05021 63.796 9.89549 63.9998 10.7531 64H53.2469C54.1044 63.9998 54.9495 63.796 55.7128 63.4053C56.4761 63.0147 57.1357 62.4483 57.6374 61.753C58.1391 61.0576 58.4685 60.253 58.5984 59.4055C58.7284 58.5579 58.6553 57.6916 58.3851 56.8779L54.3851 44.8747C54.1039 44.0544 53.7617 43.2565 53.3611 42.4875L53.6523 41.3803C53.7777 40.9029 53.792 40.4031 53.694 39.9194C53.596 39.4356 53.3884 38.9808 53.087 38.5899C52.7856 38.199 52.3986 37.8825 51.9557 37.6646C51.5128 37.4468 51.0258 37.3334 50.5323 37.3333H49.3451C46.2025 34.5846 42.1698 33.0687 37.9947 33.0667H37.3333V32.2944C39.2569 31.2868 40.8889 29.8013 42.0725 27.9808C42.6838 26.6453 43.0726 25.2188 43.2235 23.7579C43.9838 23.5426 44.6532 23.0852 45.1302 22.4552C45.6071 21.8252 45.8657 21.0569 45.8667 20.2667V13.8667C45.8667 10.189 44.4057 6.66196 41.8052 4.06145C39.2047 1.46095 35.6777 0 32 0C28.3223 0 24.7953 1.46095 22.1948 4.06145C19.5943 6.66196 18.1333 10.189 18.1333 13.8667V20.2667C18.1343 21.0569 18.3929 21.8252 18.8699 22.4552C19.3468 23.0852 20.0162 23.5426 20.7765 23.7579C20.9274 25.219 21.3165 26.6455 21.9285 27.9808C23.1118 29.8013 24.7434 31.2868 26.6667 32.2944V33.0667H26.0053C21.8302 33.0687 17.7975 34.5846 14.6549 37.3333H13.4677C12.9741 37.3333 12.487 37.4465 12.0439 37.6643C11.6009 37.882 11.2137 38.1986 10.9123 38.5895C10.6108 38.9804 10.403 39.4353 10.305 39.9191C10.2069 40.4029 10.2212 40.9028 10.3467 41.3803L10.6389 42.4885C10.2375 43.2582 9.89452 44.0568 9.6128 44.8779L5.61493 56.8768ZM14.9333 61.8667V59.7333H49.0667V61.8667H14.9333ZM56.3627 57.5541C56.5255 58.0472 56.569 58.5719 56.4897 59.0851C56.4103 59.5983 56.2104 60.0853 55.9063 60.5062C55.6022 60.9271 55.2026 61.2699 54.7403 61.5064C54.278 61.7429 53.7662 61.8664 53.2469 61.8667H51.2V59.7333C51.198 59.2224 51.0126 58.7292 50.6777 58.3434C50.3428 57.9576 49.8805 57.7048 49.3749 57.6309L52.4683 45.872L56.3627 57.5541ZM45.7291 37.3333H36.2357C36.7206 36.7053 37.0578 35.9762 37.2224 35.2H37.9915C40.7158 35.2011 43.3891 35.9382 45.7291 37.3333ZM32 2.13333C35.1107 2.137 38.093 3.37437 40.2927 5.574C42.4923 7.77363 43.7297 10.7559 43.7333 13.8667V16.96C43.5659 16.8825 43.3925 16.8183 43.2149 16.768C43.0235 15.7694 42.5156 14.859 41.7663 14.1716C41.017 13.4842 40.0663 13.0563 39.0549 12.9515C36.9322 12.6688 34.9131 11.8623 33.1797 10.6048C32.8337 10.3669 32.4237 10.2395 32.0037 10.2395C31.5838 10.2395 31.1738 10.3669 30.8277 10.6048C29.1113 11.8721 27.0996 12.6798 24.9835 12.9515C23.9635 13.045 23.0018 13.4685 22.2441 14.1578C21.4865 14.8471 20.9743 15.7646 20.7851 16.7712C20.6086 16.8211 20.4363 16.885 20.2699 16.9621V13.8667C20.2735 10.7565 21.5105 7.77467 23.7094 5.57513C25.9083 3.37559 28.8898 2.13785 32 2.13333ZM23.8315 27.0165C23.2544 25.6702 22.9141 24.2344 22.8256 22.7723C22.8116 22.4989 22.6931 22.2414 22.4946 22.0529C22.296 21.8645 22.0327 21.7596 21.7589 21.76C21.3629 21.76 20.983 21.6027 20.703 21.3226C20.4229 21.0426 20.2656 20.6627 20.2656 20.2667C20.2656 19.8706 20.4229 19.4908 20.703 19.2107C20.983 18.9307 21.3629 18.7733 21.7589 18.7733C22.0418 18.7733 22.3131 18.661 22.5132 18.4609C22.7132 18.2609 22.8256 17.9896 22.8256 17.7067C22.8233 17.0563 23.0618 16.428 23.495 15.943C23.9283 15.4579 24.5257 15.1503 25.1723 15.0795C27.6302 14.7729 29.9676 13.8376 31.9584 12.3637C33.9922 13.8386 36.3665 14.774 38.8597 15.0827C39.5022 15.1551 40.0947 15.4638 40.5223 15.9487C40.9499 16.4337 41.1819 17.0602 41.1733 17.7067C41.1733 17.9896 41.2857 18.2609 41.4858 18.4609C41.6858 18.661 41.9571 18.7733 42.24 18.7733C42.6361 18.7733 43.0159 18.9307 43.2959 19.2107C43.576 19.4908 43.7333 19.8706 43.7333 20.2667C43.7333 20.6627 43.576 21.0426 43.2959 21.3226C43.0159 21.6027 42.6361 21.76 42.24 21.76C41.9663 21.7596 41.7029 21.8645 41.5044 22.0529C41.3058 22.2414 41.1873 22.4989 41.1733 22.7723C41.0848 24.2343 40.7449 25.67 40.1685 27.0165C39.1307 29.0656 34.32 32 32 32C29.68 32 24.8693 29.0656 23.8315 27.0165ZM32 34.1333C33.1057 34.0759 34.1909 33.8125 35.2 33.3568V34.1333C35.2 34.982 34.8629 35.796 34.2627 36.3961C33.6626 36.9962 32.8487 37.3333 32 37.3333C31.1513 37.3333 30.3374 36.9962 29.7373 36.3961C29.1371 35.796 28.8 34.982 28.8 34.1333V33.3568C29.8091 33.8125 30.8943 34.0759 32 34.1333ZM26.0053 35.2H26.7733C26.9379 35.9762 27.2751 36.7053 27.76 37.3333H18.2667C20.6069 35.938 23.2807 35.2009 26.0053 35.2ZM12.6016 39.8933C12.7035 39.7604 12.8346 39.6528 12.9848 39.5788C13.135 39.5048 13.3003 39.4664 13.4677 39.4667H50.5323C50.6994 39.4666 50.8643 39.5048 51.0143 39.5785C51.1643 39.6522 51.2954 39.7593 51.3975 39.8916C51.4997 40.0239 51.57 40.1778 51.6033 40.3416C51.6365 40.5054 51.6318 40.6746 51.5893 40.8363L47.1776 57.6H16.8224L12.4107 40.8363C12.3679 40.675 12.3629 40.506 12.396 40.3425C12.4291 40.179 12.4995 40.0253 12.6016 39.8933ZM14.6283 57.632C14.1223 57.7051 13.6594 57.9575 13.3239 58.3431C12.9883 58.7288 12.8024 59.2221 12.8 59.7333V61.8667H10.7531C10.2337 61.8664 9.72174 61.7429 9.25934 61.5064C8.79694 61.2698 8.39726 60.9269 8.09314 60.5059C7.78901 60.0848 7.58912 59.5977 7.50988 59.0843C7.43065 58.571 7.47433 58.0462 7.63733 57.5531L11.5296 45.872L14.6283 57.632Z" fill="#242B36"/>
<path d="M32 54.3995C34.9408 54.3995 37.3333 52.4859 37.3333 50.1329C37.3333 47.7798 34.9408 45.8662 32 45.8662C29.0592 45.8662 26.6666 47.7798 26.6666 50.1329C26.6666 52.4859 29.0592 54.3995 32 54.3995ZM32 47.9995C33.7344 47.9995 35.2 48.9766 35.2 50.1329C35.2 51.2891 33.7344 52.2662 32 52.2662C30.2656 52.2662 28.8 51.2891 28.8 50.1329C28.8 48.9766 30.2656 47.9995 32 47.9995Z" fill="#242B36"/>
</g>
<defs>
<clipPath id="clip0_2043_5040">
<rect width="64" height="64" fill="white"/>
</clipPath>
</defs>
</svg>
